<?xml version="1.0" encoding="UTF-8" standalone="no"?>
<svg
   version="1.1"
   id="图层_1"
   x="0px"
   y="0px"
   viewBox="0 0 59.339198 41.314896"
   xml:space="preserve"
   sodipodi:docname="2.svg"
   inkscape:version="1.2.1 (9c6d41e410, 2022-07-14)"
   width="59.339199"
   height="41.314896"
   xmlns:inkscape="http://www.inkscape.org/namespaces/inkscape"
   xmlns:sodipodi="http://sodipodi.sourceforge.net/DTD/sodipodi-0.dtd"
   xmlns="http://www.w3.org/2000/svg"
   xmlns:svg="http://www.w3.org/2000/svg"
   xmlns:rdf="http://www.w3.org/1999/02/22-rdf-syntax-ns#"
   xmlns:cc="http://creativecommons.org/ns#"
   xmlns:dc="http://purl.org/dc/elements/1.1/"><metadata
   id="metadata1223"><rdf:RDF><cc:Work
       rdf:about=""><dc:format>image/svg+xml</dc:format><dc:type
         rdf:resource="http://purl.org/dc/dcmitype/StillImage" /></cc:Work></rdf:RDF></metadata><defs
   id="defs1221">
	
	
	
	
	
	
	
		
	
	
	
	
	
	
	
	
	
	
	
	
	
	
	
	
	
	
	
	
	
	
	
		
	
		
	
	
	
		
	
		
	
	
	
		
	
		
	
	
	
		
	
		
	
	
	
		
	
		
	
	
	
		
	
		
	
	
	
		
	
		
	
	
	
		
	
		
	
	
	
		
	
		
	
	
	
	
		
	
		
	
	
	
	
	
	
	
		
	
		
	
	
	
		
	
		
	
	
	
		
	
		
	
	
	
		
	
		
	
	
	
		
	
		
	
	
	
		
	
		
	
	
	
		
	
		
	
	
	
		
	
		
	
	
	
		
	
		
	
	
	
		
	
		
	
	
	
		
	
		
	
	
	
		
	
		
	
	
	
		
	
		
	
	
	
		
	
		
	
	
	
		
	
		
	
	
	
		
	
		
	
	
	
		
	
		
	
	
	
		
	
		
	
	
	
	
		
	
		
	
	
	
		
	
		
	
	
	
		
	
		
	
	
	
	
	
	
	
	
	
	
	
	
		
	
		
	
		
	
		
	
		
	
	
	
	
	
	
	
	
	
	
	
	
		
	
		
	
	
	
	
	<linearGradient
   id="SVGID_1_"
   gradientUnits="userSpaceOnUse"
   x1="1328.005"
   y1="374.6756"
   x2="1328.005"
   y2="356.39691"
   gradientTransform="translate(13.079272,-1.3079272)">
		<stop
   offset="0"
   style="stop-color:#000000"
   id="stop600" />
		<stop
   offset="0.4553"
   style="stop-color:#3E3A39"
   id="stop602" />
		<stop
   offset="0.4988"
   style="stop-color:#3E3A39"
   id="stop604" />
		<stop
   offset="0.7542"
   style="stop-color:#3E3A39"
   id="stop606" />
		<stop
   offset="0.8716"
   style="stop-color:#3A3635"
   id="stop608" />
		<stop
   offset="0.9412"
   style="stop-color:#242222"
   id="stop610" />
		<stop
   offset="0.9984"
   style="stop-color:#010101"
   id="stop612" />
		<stop
   offset="1"
   style="stop-color:#000000"
   id="stop614" />
	</linearGradient>
	
	
	
	
	
	
	
	
	
	
	
	
	
	
	
	
	
	
	
	
	
	
	
	
	
	
	
	
	
	
	
	
	
	
	
	
	
	
	
	
	
	
	
		<radialGradient
   id="SVGID_00000153679060237693156560000009790213479566062239_"
   cx="771.20819"
   cy="401.21411"
   r="18.841101"
   gradientUnits="userSpaceOnUse"
   gradientTransform="translate(13.079272,46.692073)">
		<stop
   offset="0"
   style="stop-color:#EE7800"
   id="stop752" />
		<stop
   offset="1"
   style="stop-color:#E73120"
   id="stop754" />
	</radialGradient>
	
	
		<radialGradient
   id="SVGID_00000014598602561547076410000010605917734949685135_"
   cx="771.20819"
   cy="530.67297"
   r="18.841101"
   gradientUnits="userSpaceOnUse"
   gradientTransform="translate(13.079272,-1.3079272)">
		<stop
   offset="0"
   style="stop-color:#FFFBC2"
   id="stop759" />
		<stop
   offset="1"
   style="stop-color:#D9E364"
   id="stop761" />
	</radialGradient>
	
	
		<radialGradient
   id="SVGID_00000098218656506371001620000017562825558640343468_"
   cx="771.20819"
   cy="487.51999"
   r="18.841101"
   gradientUnits="userSpaceOnUse"
   gradientTransform="translate(13.079272,-1.3079272)">
		<stop
   offset="0"
   style="stop-color:#FFFBC2"
   id="stop766" />
		<stop
   offset="1"
   style="stop-color:#D9E364"
   id="stop768" />
	</radialGradient>
	
	
		<radialGradient
   id="SVGID_00000065775852633112153650000001144426794494327700_"
   cx="771.20819"
   cy="444.3671"
   r="18.841101"
   gradientUnits="userSpaceOnUse"
   gradientTransform="translate(13.079272,-1.3079272)">
		<stop
   offset="0"
   style="stop-color:#FFFBC2"
   id="stop773" />
		<stop
   offset="1"
   style="stop-color:#D9E364"
   id="stop775" />
	</radialGradient>
	
	
	
	
	
	
	
	
	
	
	
	
	
	
		
	
		
	
		
	
		
	
		
	
		
	
		
	
		
	
	
	
	
	
	
	
	
	
	
	
	
	
	
	
	

	
	
	
	
	
	
	
	
	
	
	
	
		
	
		
	
	
	
	
	
	
	
	
	
	
	

		
		
	
			
			
			
			
			
			
			
			
			
			
		
		
		
	
			
			
			
			
			
		</defs><sodipodi:namedview
   pagecolor="#ffffff"
   bordercolor="#666666"
   borderopacity="1"
   objecttolerance="10"
   gridtolerance="10"
   guidetolerance="10"
   inkscape:pageopacity="0"
   inkscape:pageshadow="2"
   inkscape:window-width="1920"
   inkscape:window-height="1017"
   id="namedview1219"
   showgrid="false"
   inkscape:zoom="3.0582742"
   inkscape:cx="175.75272"
   inkscape:cy="112.48174"
   inkscape:window-x="-8"
   inkscape:window-y="-8"
   inkscape:window-maximized="1"
   inkscape:current-layer="图层_1"
   inkscape:showpageshadow="2"
   inkscape:pagecheckerboard="0"
   inkscape:deskcolor="#d1d1d1" />
<style
   type="text/css"
   id="style2">
	.st0{fill:none;stroke:#000000;stroke-width:5.6693;stroke-miterlimit:10;}
	.st1{fill:#33302F;}
	.st2{fill:none;stroke:#FFFFFF;stroke-width:0.7087;stroke-miterlimit:10;}
	.st3{fill:#DCDDDD;}
	.st4{fill:#1F1E1D;}
	.st5{fill:none;stroke:#FFFFFF;stroke-width:1.272;stroke-miterlimit:10;}
	.st6{fill:none;stroke:#FFFFFF;stroke-width:0.6875;stroke-miterlimit:10;}
	.st7{fill:#C69030;}
	.st8{fill:#3E3A39;}
	.st9{fill:none;stroke:#FFFFFF;stroke-width:0.6684;stroke-miterlimit:10;}
	.st10{fill:none;stroke:#FFFFFF;stroke-width:0.4252;stroke-miterlimit:10;}
	.st11{fill:none;stroke:#FFFFFF;stroke-width:0.6378;stroke-miterlimit:10;}
	.st12{fill:none;stroke:#FFFFFF;stroke-width:0.7326;stroke-miterlimit:10;}
	.st13{fill:#D7D5D0;}
	.st14{fill:#EFEFEF;}
	.st15{fill:none;stroke:#FFFFFF;stroke-width:0.5977;stroke-miterlimit:10;}
	.st16{fill:#DBB18B;}
	.st17{fill:#FFFFFF;}
	.st18{fill:#27272A;}
	.st19{fill:#3E4144;}
	.st20{fill:#292E2D;}
	.st21{fill:#C9CACA;}
	.st22{fill:#20231D;}
	.st23{fill:#34383B;}
	.st24{fill:url(#SVGID_1_);}
	.st25{fill:#9FA0A0;}
	.st26{font-family:'ArialMT';}
	.st27{font-size:11.4839px;}
	.st28{fill:url(#SVGID_00000023997617788818904670000009413969284158559880_);}
	.st29{fill:url(#SVGID_00000149340978857009610210000014922855386585896615_);}
	.st30{font-size:16.1033px;}
	.st31{fill:#E3BD90;}
	.st32{fill:url(#SVGID_00000093134610865072343170000001424476716805722270_);}
	.st33{fill:#727171;}
	.st34{fill:#B5B5B6;}
	.st35{fill:url(#SVGID_00000065757262788622410430000000338143917198367660_);}
	.st36{fill:url(#SVGID_00000018233405573019568350000012087039552752838054_);}
	.st37{fill:url(#SVGID_00000094581202062233279950000004998810432425011331_);}
	.st38{fill:url(#SVGID_00000169537581800692585670000004636434921331151798_);}
	.st39{fill-rule:evenodd;clip-rule:evenodd;fill:#00A0E9;}
	.st40{fill-rule:evenodd;clip-rule:evenodd;fill:#FFFFFF;}
	.st41{fill:none;stroke:#000000;stroke-width:0.2835;stroke-miterlimit:22.9256;}
	.st42{fill-rule:evenodd;clip-rule:evenodd;fill:#FFF100;}
	.st43{fill-rule:evenodd;clip-rule:evenodd;fill:#F39800;}
	.st44{fill-rule:evenodd;clip-rule:evenodd;fill:#E60012;}
	.st45{fill-rule:evenodd;clip-rule:evenodd;fill:#006934;}
	.st46{opacity:0.65;fill:#DCDDDD;}
	.st47{fill:#101A38;}
	.st48{fill:#F1CF92;}
	.st49{fill:#FFF100;}
	.st50{fill:#BABBBD;}
	.st51{opacity:0.3;fill:#FFFFFF;}
	.st52{opacity:0.7;}
	.st53{opacity:0.6;fill:#FFFFFF;}
	.st54{fill:#BEAF80;}
	.st55{fill:#E94441;}
	.st56{fill:#EDDAA2;}
	.st57{fill:#54AE67;}
	.st58{font-size:22.0027px;}
	.st59{fill:#E60012;}
</style>

<g
   id="g28366"
   transform="matrix(-0.08088431,0,0,-0.08088431,110.55508,58.254665)"><path
     d="M 1306.0793,218.63207 H 673.62927 c -16.69,0 -30.22,13.53 -30.22,30.22 v 431.95 c 0,16.69 13.53,30.22 30.22,30.22 h 632.45003 c 16.69,0 30.22,-13.53 30.22,-30.22 v -431.95 c 0,-16.69 -13.53,-30.22 -30.22,-30.22 z m -629.78003,479.88 c -11.55,0 -20.91,-9.36 -20.91,-20.91 0,-11.55 9.36,-20.91 20.91,-20.91 11.55,0 20.91,9.36 20.91,20.91 0,11.55 -9.36,20.91 -20.91,20.91 z m 0,-424.63 c -11.55,0 -20.91,-9.36 -20.91,-20.91 0,-11.55 9.36,-20.91 20.91,-20.91 11.55,0 20.91,9.36 20.91,20.91 0,11.55 -9.36,20.91 -20.91,20.91 z m 627.91003,424.63 c -11.55,0 -20.91,-9.36 -20.91,-20.91 0,-11.55 9.36,-20.91 20.91,-20.91 11.55,0 20.91,9.36 20.91,20.91 0,11.55 -9.36,20.91 -20.91,20.91 z m 0,-424.63 c -11.55,0 -20.91,-9.36 -20.91,-20.91 0,-11.55 9.36,-20.91 20.91,-20.91 11.55,0 20.91,9.36 20.91,20.91 0,11.55 -9.36,20.91 -20.91,20.91 z"
     id="path6" /><rect
     x="755.88928"
     y="218.63208"
     class="st1"
     width="105.17"
     height="119.23"
     id="rect8" /><rect
     x="690.35931"
     y="429.32208"
     class="st2"
     width="24.75"
     height="66.309998"
     id="rect10" /><rect
     x="892.6593"
     y="218.63208"
     class="st1"
     width="105.17"
     height="119.23"
     id="rect12" /><rect
     x="1029.4392"
     y="218.63208"
     class="st1"
     width="105.17"
     height="119.23"
     id="rect14" /><rect
     x="1166.2192"
     y="218.63208"
     class="st1"
     width="105.17"
     height="119.23"
     id="rect16" /><rect
     x="412.24292"
     y="-1336.3071"
     transform="rotate(90)"
     class="st1"
     width="105.17"
     height="109.75"
     id="rect18" /><rect
     x="892.6593"
     y="593.3421"
     class="st1"
     width="105.17"
     height="117.69"
     id="rect20" /><rect
     x="1029.4392"
     y="593.3421"
     class="st1"
     width="105.17"
     height="117.69"
     id="rect22" /><path
     class="st1"
     d="m 1146.0093,497.91207 h -54.45 c -1.1,0 -1.98,-0.89 -1.98,-1.98 v -54.45 c 0,-1.1 0.89,-1.98 1.98,-1.98 h 54.45 c 1.1,0 1.98,0.89 1.98,1.98 v 54.45 c 0.01,1.09 -0.88,1.98 -1.98,1.98 z"
     id="path24" /><path
     class="st1"
     d="m 1022.8893,432.84207 h -22.91003 c -0.31,0 -0.57,-0.25 -0.57,-0.57 v -22.91 c 0,-0.31 0.25,-0.57 0.57,-0.57 h 22.91003 c 0.31,0 0.57,0.25 0.57,0.57 v 22.91 c 0,0.32 -0.26,0.57 -0.57,0.57 z"
     id="path26" /><path
     class="st1"
     d="m 1010.8693,513.13207 h -22.91003 c -0.31,0 -0.57,-0.25 -0.57,-0.57 v -10.89 c 0,-0.31 0.25,-0.57 0.57,-0.57 h 22.91003 c 0.31,0 0.57,0.25 0.57,0.57 v 10.89 c 0,0.31 -0.26,0.57 -0.57,0.57 z"
     id="path28" /><rect
     x="1030.6992"
     y="398.39209"
     class="st2"
     width="27.209999"
     height="12.09"
     id="rect30" /><path
     class="st1"
     d="m 1056.4293,410.49207 h -22.91 c -0.31,0 -0.57,-0.25 -0.57,-0.57 v -6.46 c 0,-0.31 0.25,-0.57 0.57,-0.57 h 22.91 c 0.31,0 0.57,0.25 0.57,0.57 v 6.46 c -0.01,0.31 -0.26,0.57 -0.57,0.57 z"
     id="path32" /><rect
     x="1001.9693"
     y="432.84207"
     class="st3"
     width="3.4200001"
     height="14.41"
     id="rect34" /><rect
     x="1007.3793"
     y="432.84207"
     class="st3"
     width="3.4200001"
     height="14.41"
     id="rect36" /><rect
     x="1012.7793"
     y="432.84207"
     class="st3"
     width="3.4200001"
     height="14.41"
     id="rect38" /><rect
     x="1018.1893"
     y="432.84207"
     class="st3"
     width="3.4200001"
     height="14.41"
     id="rect40" /><g
     id="g74"
     transform="translate(13.079272,-1.3079272)">
		<rect
   x="1081.15"
   y="426.59"
   class="st3"
   width="3.4200001"
   height="14.41"
   id="rect42" />
		<rect
   x="1087.6899"
   y="426.59"
   class="st3"
   width="3.4200001"
   height="14.41"
   id="rect44" />
		<rect
   x="1094.24"
   y="426.59"
   class="st3"
   width="3.4200001"
   height="14.41"
   id="rect46" />
		<rect
   x="1100.78"
   y="426.59"
   class="st3"
   width="3.4200001"
   height="14.41"
   id="rect48" />
		<rect
   x="1107.33"
   y="426.59"
   class="st3"
   width="3.4200001"
   height="14.41"
   id="rect50" />
		<rect
   x="1113.87"
   y="426.59"
   class="st3"
   width="3.4200001"
   height="14.41"
   id="rect52" />
		<rect
   x="1120.42"
   y="426.59"
   class="st3"
   width="3.4200001"
   height="14.41"
   id="rect54" />
		<rect
   x="1126.96"
   y="426.59"
   class="st3"
   width="3.4200001"
   height="14.41"
   id="rect56" />
		<rect
   x="1081.15"
   y="499.29001"
   class="st3"
   width="3.4200001"
   height="14.41"
   id="rect58" />
		<rect
   x="1087.6899"
   y="499.29001"
   class="st3"
   width="3.4200001"
   height="14.41"
   id="rect60" />
		<rect
   x="1094.24"
   y="499.29001"
   class="st3"
   width="3.4200001"
   height="14.41"
   id="rect62" />
		<rect
   x="1100.78"
   y="499.29001"
   class="st3"
   width="3.4200001"
   height="14.41"
   id="rect64" />
		<rect
   x="1107.33"
   y="499.29001"
   class="st3"
   width="3.4200001"
   height="14.41"
   id="rect66" />
		<rect
   x="1113.87"
   y="499.29001"
   class="st3"
   width="3.4200001"
   height="14.41"
   id="rect68" />
		<rect
   x="1120.42"
   y="499.29001"
   class="st3"
   width="3.4200001"
   height="14.41"
   id="rect70" />
		<rect
   x="1126.96"
   y="499.29001"
   class="st3"
   width="3.4200001"
   height="14.41"
   id="rect72" />
	</g><g
     id="g108"
     transform="translate(13.079272,-1.3079272)">
		
			<rect
   x="1140.34"
   y="440.03"
   transform="rotate(90,1142.0545,447.2394)"
   class="st3"
   width="3.4200001"
   height="14.41"
   id="rect76" />
		
			<rect
   x="1140.34"
   y="446.57999"
   transform="rotate(90,1142.0546,453.78435)"
   class="st3"
   width="3.4200001"
   height="14.41"
   id="rect78" />
		
			<rect
   x="1140.34"
   y="453.12"
   transform="rotate(90,1142.0546,460.32925)"
   class="st3"
   width="3.4200001"
   height="14.41"
   id="rect80" />
		
			<rect
   x="1140.34"
   y="459.67001"
   transform="rotate(90,1142.0545,466.87415)"
   class="st3"
   width="3.4200001"
   height="14.41"
   id="rect82" />
		
			<rect
   x="1140.34"
   y="466.20999"
   transform="rotate(90,1142.0546,473.41895)"
   class="st3"
   width="3.4200001"
   height="14.41"
   id="rect84" />
		
			<rect
   x="1140.34"
   y="472.76001"
   transform="rotate(90,1142.0545,479.9639)"
   class="st3"
   width="3.4200001"
   height="14.41"
   id="rect86" />
		
			<rect
   x="1140.34"
   y="479.29999"
   transform="rotate(90,1142.0546,486.50885)"
   class="st3"
   width="3.4200001"
   height="14.41"
   id="rect88" />
		
			<rect
   x="1140.34"
   y="485.85001"
   transform="rotate(90,1142.0546,493.0537)"
   class="st3"
   width="3.4200001"
   height="14.41"
   id="rect90" />
		
			<rect
   x="1067.65"
   y="440.03"
   transform="rotate(90,1069.3617,447.23945)"
   class="st3"
   width="3.4200001"
   height="14.41"
   id="rect92" />
		
			<rect
   x="1067.65"
   y="446.57999"
   transform="rotate(90,1069.3617,453.78435)"
   class="st3"
   width="3.4200001"
   height="14.41"
   id="rect94" />
		
			<rect
   x="1067.65"
   y="453.12"
   transform="rotate(90,1069.3616,460.3292)"
   class="st3"
   width="3.4200001"
   height="14.41"
   id="rect96" />
		
			<rect
   x="1067.65"
   y="459.67001"
   transform="rotate(90,1069.3616,466.8741)"
   class="st3"
   width="3.4200001"
   height="14.41"
   id="rect98" />
		
			<rect
   x="1067.65"
   y="466.20999"
   transform="rotate(90,1069.3616,473.419)"
   class="st3"
   width="3.4200001"
   height="14.41"
   id="rect100" />
		
			<rect
   x="1067.65"
   y="472.76001"
   transform="rotate(90,1069.3616,479.96395)"
   class="st3"
   width="3.4200001"
   height="14.41"
   id="rect102" />
		
			<rect
   x="1067.65"
   y="479.29999"
   transform="rotate(90,1069.3617,486.50885)"
   class="st3"
   width="3.4200001"
   height="14.41"
   id="rect104" />
		
			<rect
   x="1067.65"
   y="485.85001"
   transform="rotate(90,1069.3617,493.05375)"
   class="st3"
   width="3.4200001"
   height="14.41"
   id="rect106" />
	</g><rect
     x="1001.9693"
     y="394.39209"
     class="st3"
     width="3.4200001"
     height="14.41"
     id="rect110" /><rect
     x="1007.3793"
     y="394.39209"
     class="st3"
     width="3.4200001"
     height="14.41"
     id="rect112" /><rect
     x="1012.7793"
     y="394.39209"
     class="st3"
     width="3.4200001"
     height="14.41"
     id="rect114" /><rect
     x="1018.1893"
     y="394.39209"
     class="st3"
     width="3.4200001"
     height="14.41"
     id="rect116" /><g
     id="g126"
     transform="translate(13.079272,-1.3079272)">
		
			<rect
   x="961.67999"
   y="421.31"
   transform="rotate(90,968.2554,423.9793)"
   class="st3"
   width="13.15"
   height="5.3400002"
   id="rect118" />
		
			<rect
   x="965.37"
   y="421.31"
   transform="rotate(90,968.2554,423.9793)"
   class="st1"
   width="5.7600002"
   height="5.3400002"
   id="rect120" />
		<polyline
   class="st2"
   points="972.97,422.12 972.97,414.52 963.55,414.52 963.55,422.12   "
   id="polyline122" />
		<polyline
   class="st2"
   points="963.55,425.49 963.55,433.08 972.97,433.08 972.97,425.49   "
   id="polyline124" />
	</g><rect
     x="1105.4993"
     y="353.11209"
     class="st3"
     width="24.049999"
     height="11.78"
     id="rect128" /><rect
     x="1109.9893"
     y="353.11209"
     class="st4"
     width="15.07"
     height="11.78"
     id="rect130" /><polyline
     class="st5"
     points="1101.29,351.55 1088.15,351.55 1088.15,369.09 1101.29,369.09  "
     id="polyline132"
     transform="translate(13.079272,-1.3079272)" /><polyline
     class="st5"
     points="1107.12,369.09 1120.26,369.09 1120.26,351.55 1107.12,351.55  "
     id="polyline134"
     transform="translate(13.079272,-1.3079272)" /><rect
     x="482.09283"
     y="-1057.1323"
     transform="rotate(90)"
     class="st3"
     width="13.15"
     height="5.3400002"
     id="rect136" /><rect
     x="485.78278"
     y="-1057.1323"
     transform="rotate(90)"
     class="st1"
     width="5.7600002"
     height="5.3400002"
     id="rect138" /><polyline
     class="st2"
     points="1046.09,488.11 1046.09,480.52 1036.67,480.52 1036.67,488.11  "
     id="polyline140"
     transform="translate(13.079272,-1.3079272)" /><polyline
     class="st2"
     points="1036.67,491.48 1036.67,499.08 1046.09,499.08 1046.09,491.48  "
     id="polyline142"
     transform="translate(13.079272,-1.3079272)" /><rect
     x="519.53503"
     y="-1194.6235"
     transform="rotate(90)"
     class="st3"
     width="12.37"
     height="5.3400002"
     id="rect144" /><rect
     x="523.00513"
     y="-1194.6235"
     transform="rotate(90)"
     width="5.4299998"
     height="5.3400002"
     id="rect146" /><polyline
     class="st6"
     points="1183.59,525.28 1183.59,518.13 1174.17,518.13 1174.17,525.28  "
     id="polyline148"
     transform="translate(13.079272,-1.3079272)" /><polyline
     class="st6"
     points="1174.17,528.45 1174.17,535.6 1183.59,535.6 1183.59,528.45  "
     id="polyline150"
     transform="translate(13.079272,-1.3079272)" /><rect
     x="519.53619"
     y="-1218.7725"
     transform="rotate(90)"
     class="st3"
     width="12.37"
     height="5.3400002"
     id="rect152" /><rect
     x="523.00629"
     y="-1218.7725"
     transform="rotate(90)"
     width="5.4299998"
     height="5.3400002"
     id="rect154" /><polyline
     class="st6"
     points="1207.73,525.28 1207.73,518.13 1198.31,518.13 1198.31,525.28  "
     id="polyline156"
     transform="translate(13.079272,-1.3079272)" /><polyline
     class="st6"
     points="1198.31,528.45 1198.31,535.6 1207.73,535.6 1207.73,528.45  "
     id="polyline158"
     transform="translate(13.079272,-1.3079272)" /><rect
     x="431.57938"
     y="-1042.261"
     transform="rotate(90)"
     class="st3"
     width="13.15"
     height="5.3400002"
     id="rect160" /><rect
     x="435.26938"
     y="-1042.261"
     transform="rotate(90)"
     class="st1"
     width="5.7600002"
     height="5.3400002"
     id="rect162" /><polyline
     class="st2"
     points="1031.22,437.6 1031.22,430 1021.8,430 1021.8,437.6  "
     id="polyline164"
     transform="translate(13.079272,-1.3079272)" /><polyline
     class="st2"
     points="1021.8,440.97 1021.8,448.56 1031.22,448.56 1031.22,440.97  "
     id="polyline166"
     transform="translate(13.079272,-1.3079272)" /><rect
     x="385.91324"
     y="-1097.9038"
     transform="rotate(90)"
     class="st3"
     width="13.15"
     height="5.3400002"
     id="rect168" /><rect
     x="389.6033"
     y="-1097.9038"
     transform="rotate(90)"
     class="st4"
     width="5.7600002"
     height="5.3400002"
     id="rect170" /><polyline
     class="st2"
     points="1086.87,391.93 1086.87,384.34 1077.45,384.34 1077.45,391.93  "
     id="polyline172"
     transform="translate(13.079272,-1.3079272)" /><polyline
     class="st2"
     points="1077.45,395.31 1077.45,402.9 1086.87,402.9 1086.87,395.31  "
     id="polyline174"
     transform="translate(13.079272,-1.3079272)" /><rect
     x="386.09012"
     y="-1111.6187"
     transform="rotate(90)"
     class="st3"
     width="13.15"
     height="5.3400002"
     id="rect176" /><rect
     x="389.78006"
     y="-1111.6187"
     transform="rotate(90)"
     class="st4"
     width="5.7600002"
     height="5.3400002"
     id="rect178" /><polyline
     class="st2"
     points="1100.58,392.11 1100.58,384.52 1091.16,384.52 1091.16,392.11  "
     id="polyline180"
     transform="translate(13.079272,-1.3079272)" /><polyline
     class="st2"
     points="1091.16,395.49 1091.16,403.08 1100.58,403.08 1100.58,395.49  "
     id="polyline182"
     transform="translate(13.079272,-1.3079272)" /><rect
     x="386.09158"
     y="-1141.427"
     transform="rotate(90)"
     class="st3"
     width="13.15"
     height="5.3400002"
     id="rect184" /><rect
     x="389.78165"
     y="-1141.427"
     transform="rotate(90)"
     class="st4"
     width="5.7600002"
     height="5.3400002"
     id="rect186" /><polyline
     class="st2"
     points="1130.38,392.11 1130.38,384.52 1120.96,384.52 1120.96,392.11  "
     id="polyline188"
     transform="translate(13.079272,-1.3079272)" /><polyline
     class="st2"
     points="1120.96,395.49 1120.96,403.08 1130.38,403.08 1130.38,395.49  "
     id="polyline190"
     transform="translate(13.079272,-1.3079272)" /><rect
     x="383.56641"
     y="-1126.1704"
     transform="rotate(90)"
     class="st3"
     width="13.15"
     height="5.3400002"
     id="rect192" /><rect
     x="387.25647"
     y="-1126.1704"
     transform="rotate(90)"
     class="st7"
     width="5.7600002"
     height="5.3400002"
     id="rect194" /><polyline
     class="st2"
     points="1115.13,388.31 1115.13,380.72 1105.71,380.72 1105.71,388.31  "
     id="polyline196"
     transform="translate(13.079272,-1.3079272)" /><polyline
     class="st2"
     points="1105.71,395.49 1105.71,403.08 1115.13,403.08 1115.13,395.49  "
     id="polyline198"
     transform="translate(13.079272,-1.3079272)" /><rect
     x="453.51376"
     y="-1042.2654"
     transform="rotate(90)"
     class="st3"
     width="13.15"
     height="5.3400002"
     id="rect200" /><rect
     x="457.20377"
     y="-1042.2654"
     transform="rotate(90)"
     class="st1"
     width="5.7600002"
     height="5.3400002"
     id="rect202" /><polyline
     class="st2"
     points="1031.22,459.53 1031.22,451.94 1021.8,451.94 1021.8,459.53  "
     id="polyline204"
     transform="translate(13.079272,-1.3079272)" /><polyline
     class="st2"
     points="1021.8,462.91 1021.8,470.5 1031.22,470.5 1031.22,462.91  "
     id="polyline206"
     transform="translate(13.079272,-1.3079272)" /><g
     id="g216"
     transform="translate(13.079272,-1.3079272)">
		
			<rect
   x="961.67999"
   y="449.26001"
   transform="rotate(-90,968.2554,451.9314)"
   class="st3"
   width="13.15"
   height="5.3400002"
   id="rect208" />
		
			<rect
   x="965.37"
   y="449.26001"
   transform="rotate(-90,968.2554,451.9314)"
   class="st1"
   width="5.7600002"
   height="5.3400002"
   id="rect210" />
		<polyline
   class="st2"
   points="963.55,453.79 963.55,461.39 972.97,461.39 972.97,453.79   "
   id="polyline212" />
		<polyline
   class="st2"
   points="972.97,450.42 972.97,442.83 963.55,442.83 963.55,450.42   "
   id="polyline214" />
	</g><rect
     x="-485.52179"
     y="978.97034"
     transform="rotate(-90)"
     class="st3"
     width="13.2"
     height="4.7399998"
     id="rect218" /><rect
     x="-481.82178"
     y="978.97034"
     transform="rotate(-90)"
     class="st8"
     width="5.79"
     height="4.7399998"
     id="rect220" /><polyline
     class="st9"
     points="964.08,482.1 964.08,489.73 972.43,489.73 972.43,482.1  "
     id="polyline222"
     transform="translate(13.079272,-1.3079272)" /><polyline
     class="st9"
     points="972.43,478.72 972.43,471.1 964.08,471.1 964.08,478.72  "
     id="polyline224"
     transform="translate(13.079272,-1.3079272)" /><rect
     x="919.28931"
     y="452.37207"
     class="st3"
     width="13.2"
     height="4.7399998"
     id="rect226" /><rect
     x="922.98926"
     y="452.37207"
     class="st7"
     width="5.79"
     height="4.7399998"
     id="rect228" /><polyline
     class="st9"
     points="910.94,451.88 903.32,451.88 903.32,460.23 910.94,460.23  "
     id="polyline230"
     transform="translate(13.079272,-1.3079272)" /><polyline
     class="st9"
     points="914.33,460.23 921.95,460.23 921.95,451.88 914.33,451.88  "
     id="polyline232"
     transform="translate(13.079272,-1.3079272)" /><rect
     x="355.25909"
     y="-860.13147"
     transform="rotate(90)"
     class="st3"
     width="13.2"
     height="4.7399998"
     id="rect234" /><rect
     x="358.95905"
     y="-860.13147"
     transform="rotate(90)"
     class="st7"
     width="5.79"
     height="4.7399998"
     id="rect236" /><polyline
     class="st9"
     points="848.86,361.29 848.86,353.67 840.51,353.67 840.51,361.29  "
     id="polyline238"
     transform="translate(13.079272,-1.3079272)" /><polyline
     class="st9"
     points="840.51,364.68 840.51,372.3 848.86,372.3 848.86,364.68  "
     id="polyline240"
     transform="translate(13.079272,-1.3079272)" /><rect
     x="355.77249"
     y="-815.55676"
     transform="rotate(90)"
     class="st3"
     width="13.2"
     height="4.7399998"
     id="rect242" /><rect
     x="359.47244"
     y="-815.55676"
     transform="rotate(90)"
     class="st1"
     width="5.79"
     height="4.7399998"
     id="rect244" /><polyline
     class="st9"
     points="804.29,361.8 804.29,354.18 795.94,354.18 795.94,361.8  "
     id="polyline246"
     transform="translate(13.079272,-1.3079272)" /><polyline
     class="st9"
     points="795.94,365.19 795.94,372.81 804.29,372.81 804.29,365.19  "
     id="polyline248"
     transform="translate(13.079272,-1.3079272)" /><rect
     x="355.76599"
     y="-829.18317"
     transform="rotate(90)"
     class="st3"
     width="13.2"
     height="4.7399998"
     id="rect250" /><rect
     x="359.47595"
     y="-829.18317"
     transform="rotate(90)"
     class="st1"
     width="5.79"
     height="4.7399998"
     id="rect252" /><polyline
     class="st9"
     points="817.91,361.8 817.91,354.18 809.57,354.18 809.57,361.8  "
     id="polyline254"
     transform="translate(13.079272,-1.3079272)" /><polyline
     class="st9"
     points="809.57,365.19 809.57,372.81 817.91,372.81 817.91,365.19  "
     id="polyline256"
     transform="translate(13.079272,-1.3079272)" /><rect
     x="397.04968"
     y="-860.1322"
     transform="rotate(90)"
     class="st3"
     width="13.2"
     height="4.7399998"
     id="rect258" /><rect
     x="400.74963"
     y="-860.1322"
     transform="rotate(90)"
     class="st7"
     width="5.79"
     height="4.7399998"
     id="rect260" /><polyline
     class="st9"
     points="848.86,403.09 848.86,395.46 840.51,395.46 840.51,403.09  "
     id="polyline262"
     transform="translate(13.079272,-1.3079272)" /><polyline
     class="st9"
     points="840.51,406.47 840.51,414.09 848.86,414.09 848.86,406.47  "
     id="polyline264"
     transform="translate(13.079272,-1.3079272)" /><rect
     x="-825.21082"
     y="-501.58887"
     transform="scale(-1)"
     class="st3"
     width="12.01"
     height="4.7399998"
     id="rect266" /><rect
     x="-821.83081"
     y="-501.58887"
     transform="scale(-1)"
     class="st1"
     width="5.27"
     height="4.7399998"
     id="rect268" /><polyline
     class="st10"
     points="807.82,504.7 814.76,504.7 814.76,496.35 807.82,496.35  "
     id="polyline270"
     transform="translate(13.079272,-1.3079272)" /><polyline
     class="st10"
     points="804.74,496.35 797.8,496.35 797.8,504.7 804.74,504.7  "
     id="polyline272"
     transform="translate(13.079272,-1.3079272)" /><rect
     x="-825.21082"
     y="-490.67877"
     transform="scale(-1)"
     class="st3"
     width="12.01"
     height="4.7399998"
     id="rect274" /><rect
     x="-821.83081"
     y="-490.67877"
     transform="scale(-1)"
     class="st1"
     width="5.27"
     height="4.7399998"
     id="rect276" /><polyline
     class="st10"
     points="807.82,493.79 814.76,493.79 814.76,485.44 807.82,485.44  "
     id="polyline278"
     transform="translate(13.079272,-1.3079272)" /><polyline
     class="st10"
     points="804.74,485.44 797.8,485.44 797.8,493.79 804.74,493.79  "
     id="polyline280"
     transform="translate(13.079272,-1.3079272)" /><rect
     x="-743.9903"
     y="-316.30298"
     transform="scale(-1)"
     class="st3"
     width="12.01"
     height="4.7399998"
     id="rect282" /><rect
     x="-740.61029"
     y="-316.30298"
     transform="scale(-1)"
     class="st1"
     width="5.27"
     height="4.7399998"
     id="rect284" /><polyline
     class="st11"
     points="726.6,319.42 733.54,319.42 733.54,311.07 726.6,311.07  "
     id="polyline286"
     transform="translate(13.079272,-1.3079272)" /><polyline
     class="st11"
     points="723.52,311.07 716.58,311.07 716.58,319.42 723.52,319.42  "
     id="polyline288"
     transform="translate(13.079272,-1.3079272)" /><rect
     x="-743.9903"
     y="-328.8913"
     transform="scale(-1)"
     class="st3"
     width="12.01"
     height="4.7399998"
     id="rect290" /><rect
     x="-740.61029"
     y="-328.8913"
     transform="scale(-1)"
     class="st1"
     width="5.27"
     height="4.7399998"
     id="rect292" /><polyline
     class="st11"
     points="726.6,332 733.54,332 733.54,323.65 726.6,323.65  "
     id="polyline294"
     transform="translate(13.079272,-1.3079272)" /><polyline
     class="st11"
     points="723.52,323.65 716.58,323.65 716.58,332 723.52,332  "
     id="polyline296"
     transform="translate(13.079272,-1.3079272)" /><rect
     x="-743.9903"
     y="-341.75211"
     transform="scale(-1)"
     class="st3"
     width="12.01"
     height="4.7399998"
     id="rect298" /><rect
     x="-740.61029"
     y="-341.75211"
     transform="scale(-1)"
     class="st1"
     width="5.27"
     height="4.7399998"
     id="rect300" /><polyline
     class="st11"
     points="726.6,344.87 733.54,344.87 733.54,336.52 726.6,336.52  "
     id="polyline302"
     transform="translate(13.079272,-1.3079272)" /><polyline
     class="st11"
     points="723.52,336.52 716.58,336.52 716.58,344.87 723.52,344.87  "
     id="polyline304"
     transform="translate(13.079272,-1.3079272)" /><rect
     x="-743.9903"
     y="-355.34778"
     transform="scale(-1)"
     class="st3"
     width="12.01"
     height="4.7399998"
     id="rect306" /><rect
     x="-740.61029"
     y="-355.34778"
     transform="scale(-1)"
     class="st1"
     width="5.27"
     height="4.7399998"
     id="rect308" /><polyline
     class="st11"
     points="726.6,358.46 733.54,358.46 733.54,350.11 726.6,350.11  "
     id="polyline310"
     transform="translate(13.079272,-1.3079272)" /><polyline
     class="st11"
     points="723.52,350.11 716.58,350.11 716.58,358.46 723.52,358.46  "
     id="polyline312"
     transform="translate(13.079272,-1.3079272)" /><rect
     x="-743.9903"
     y="-368.20856"
     transform="scale(-1)"
     class="st3"
     width="12.01"
     height="4.7399998"
     id="rect314" /><rect
     x="-740.61029"
     y="-368.20856"
     transform="scale(-1)"
     class="st1"
     width="5.27"
     height="4.7399998"
     id="rect316" /><polyline
     class="st11"
     points="726.6,371.33 733.54,371.33 733.54,362.98 726.6,362.98  "
     id="polyline318"
     transform="translate(13.079272,-1.3079272)" /><polyline
     class="st11"
     points="723.52,362.98 716.58,362.98 716.58,371.33 723.52,371.33  "
     id="polyline320"
     transform="translate(13.079272,-1.3079272)" /><rect
     x="-743.9903"
     y="-380.5145"
     transform="scale(-1)"
     class="st3"
     width="12.01"
     height="4.7399998"
     id="rect322" /><rect
     x="-740.61029"
     y="-380.5145"
     transform="scale(-1)"
     class="st1"
     width="5.27"
     height="4.7399998"
     id="rect324" /><polyline
     class="st11"
     points="726.6,383.63 733.54,383.63 733.54,375.28 726.6,375.28  "
     id="polyline326"
     transform="translate(13.079272,-1.3079272)" /><polyline
     class="st11"
     points="723.52,375.28 716.58,375.28 716.58,383.63 723.52,383.63  "
     id="polyline328"
     transform="translate(13.079272,-1.3079272)" /><rect
     x="-743.9903"
     y="-393.38516"
     transform="scale(-1)"
     class="st3"
     width="12.01"
     height="4.7399998"
     id="rect330" /><rect
     x="-740.61029"
     y="-393.38516"
     transform="scale(-1)"
     class="st1"
     width="5.27"
     height="4.7399998"
     id="rect332" /><polyline
     class="st11"
     points="726.6,396.5 733.54,396.5 733.54,388.15 726.6,388.15  "
     id="polyline334"
     transform="translate(13.079272,-1.3079272)" /><polyline
     class="st11"
     points="723.52,388.15 716.58,388.15 716.58,396.5 723.52,396.5  "
     id="polyline336"
     transform="translate(13.079272,-1.3079272)" /><rect
     x="-743.9903"
     y="-406.952"
     transform="scale(-1)"
     class="st3"
     width="12.01"
     height="4.7399998"
     id="rect338" /><rect
     x="-740.61029"
     y="-406.952"
     transform="scale(-1)"
     class="st1"
     width="5.27"
     height="4.7399998"
     id="rect340" /><polyline
     class="st11"
     points="726.6,410.06 733.54,410.06 733.54,401.72 726.6,401.72  "
     id="polyline342"
     transform="translate(13.079272,-1.3079272)" /><polyline
     class="st11"
     points="723.52,401.72 716.58,401.72 716.58,410.06 723.52,410.06  "
     id="polyline344"
     transform="translate(13.079272,-1.3079272)" /><rect
     x="-825.21082"
     y="-512.89581"
     transform="scale(-1)"
     class="st3"
     width="12.01"
     height="4.7399998"
     id="rect346" /><rect
     x="-821.83081"
     y="-512.89581"
     transform="scale(-1)"
     class="st1"
     width="5.27"
     height="4.7399998"
     id="rect348" /><polyline
     class="st10"
     points="807.82,516.01 814.76,516.01 814.76,507.66 807.82,507.66  "
     id="polyline350"
     transform="translate(13.079272,-1.3079272)" /><polyline
     class="st10"
     points="804.74,507.66 797.8,507.66 797.8,516.01 804.74,516.01  "
     id="polyline352"
     transform="translate(13.079272,-1.3079272)" /><rect
     x="-825.21082"
     y="-534.96252"
     transform="scale(-1)"
     class="st3"
     width="12.01"
     height="4.7399998"
     id="rect354" /><rect
     x="-821.83081"
     y="-534.96252"
     transform="scale(-1)"
     class="st1"
     width="5.27"
     height="4.7399998"
     id="rect356" /><polyline
     class="st10"
     points="807.82,538.07 814.76,538.07 814.76,529.73 807.82,529.73  "
     id="polyline358"
     transform="translate(13.079272,-1.3079272)" /><polyline
     class="st10"
     points="804.74,529.73 797.8,529.73 797.8,538.07 804.74,538.07  "
     id="polyline360"
     transform="translate(13.079272,-1.3079272)" /><rect
     x="-825.21082"
     y="-524.05261"
     transform="scale(-1)"
     class="st3"
     width="12.01"
     height="4.7399998"
     id="rect362" /><rect
     x="-821.83081"
     y="-524.05261"
     transform="scale(-1)"
     class="st1"
     width="5.27"
     height="4.7399998"
     id="rect364" /><polyline
     class="st10"
     points="807.82,527.16 814.76,527.16 814.76,518.82 807.82,518.82  "
     id="polyline366"
     transform="translate(13.079272,-1.3079272)" /><polyline
     class="st10"
     points="804.74,518.82 797.8,518.82 797.8,527.16 804.74,527.16  "
     id="polyline368"
     transform="translate(13.079272,-1.3079272)" /><rect
     x="-825.21082"
     y="-546.25958"
     transform="scale(-1)"
     class="st3"
     width="12.01"
     height="4.7399998"
     id="rect370" /><rect
     x="-821.83081"
     y="-546.25958"
     transform="scale(-1)"
     class="st1"
     width="5.27"
     height="4.7399998"
     id="rect372" /><polyline
     class="st10"
     points="807.82,549.38 814.76,549.38 814.76,541.03 807.82,541.03  "
     id="polyline374"
     transform="translate(13.079272,-1.3079272)" /><polyline
     class="st10"
     points="804.74,541.03 797.8,541.03 797.8,549.38 804.74,549.38  "
     id="polyline376"
     transform="translate(13.079272,-1.3079272)" /><g
     id="g386"
     transform="translate(13.079272,-1.3079272)">
		
			<rect
   x="857.83002"
   y="542.84003"
   transform="rotate(180,863.84115,545.20375)"
   class="st3"
   width="12.01"
   height="4.7399998"
   id="rect378" />
		
			<rect
   x="861.21002"
   y="542.84003"
   transform="rotate(180,863.84115,545.20375)"
   class="st1"
   width="5.27"
   height="4.7399998"
   id="rect380" />
		<polyline
   class="st10"
   points="865.54,549.38 872.48,549.38 872.48,541.03 865.54,541.03   "
   id="polyline382" />
		<polyline
   class="st10"
   points="862.46,541.03 855.52,541.03 855.52,549.38 862.46,549.38   "
   id="polyline384" />
	</g><rect
     x="-829.01538"
     y="-463.99457"
     transform="scale(-1)"
     class="st3"
     width="17.209999"
     height="8.4200001"
     id="rect388" /><rect
     x="-824.17535"
     y="-463.99457"
     transform="scale(-1)"
     class="st1"
     width="7.5500002"
     height="8.4200001"
     id="rect390" /><polyline
     class="st10"
     points="809.44,466.22 818.04,466.22 818.04,455.87 809.44,455.87  "
     id="polyline392"
     transform="translate(13.079272,-1.3079272)" /><polyline
     class="st10"
     points="805.62,455.87 797.01,455.87 797.01,466.22 805.62,466.22  "
     id="polyline394"
     transform="translate(13.079272,-1.3079272)" /><rect
     x="-829.01538"
     y="-451.40628"
     transform="scale(-1)"
     class="st3"
     width="17.209999"
     height="8.4200001"
     id="rect396" /><rect
     x="-824.17535"
     y="-451.40628"
     transform="scale(-1)"
     class="st1"
     width="7.5500002"
     height="8.4200001"
     id="rect398" /><polyline
     class="st10"
     points="809.44,453.63 818.04,453.63 818.04,443.28 809.44,443.28  "
     id="polyline400"
     transform="translate(13.079272,-1.3079272)" /><polyline
     class="st10"
     points="805.62,443.28 797.01,443.28 797.01,453.63 805.62,453.63  "
     id="polyline402"
     transform="translate(13.079272,-1.3079272)" /><rect
     x="452.30069"
     y="-1057.246"
     transform="rotate(90)"
     class="st3"
     width="14.05"
     height="5.3400002"
     id="rect404" /><rect
     x="456.24075"
     y="-1057.246"
     transform="rotate(90)"
     class="st7"
     width="6.1599998"
     height="5.3400002"
     id="rect406" /><polyline
     class="st12"
     points="1046.2,458.64 1046.2,450.53 1036.78,450.53 1036.78,458.64  "
     id="polyline408"
     transform="translate(13.079272,-1.3079272)" /><polyline
     class="st12"
     points="1036.78,462.25 1036.78,470.36 1046.2,470.36 1046.2,462.25  "
     id="polyline410"
     transform="translate(13.079272,-1.3079272)" /><rect
     x="1033.8593"
     y="476.43207"
     class="st13"
     width="11.04"
     height="28.75"
     id="rect412" /><path
     class="st14"
     d="m 1041.7193,503.85207 h -4.67 c -0.78,0 -1.42,-0.63 -1.42,-1.42 v -23.25 c 0,-0.78 0.63,-1.42 1.42,-1.42 h 4.67 c 0.78,0 1.42,0.63 1.42,1.42 v 23.25 c -0.01,0.78 -0.64,1.42 -1.42,1.42 z"
     id="path414" /><circle
     class="st8"
     cx="1098.5792"
     cy="449.82208"
     r="4.71"
     id="circle416" /><g
     id="g422"
     transform="translate(13.079272,-1.3079272)">
		<rect
   x="974.31"
   y="516.76001"
   class="st3"
   width="6.75"
   height="6.75"
   id="rect418" />
		<rect
   x="976.53003"
   y="514.44"
   class="st3"
   width="2.3199999"
   height="2.3199999"
   id="rect420" />
	</g><g
     id="g428"
     transform="translate(13.079272,-1.3079272)">
		
			<rect
   x="974.44"
   y="492.92001"
   transform="rotate(180,977.9682,496.4561)"
   class="st3"
   width="7.0599999"
   height="7.0599999"
   id="rect424" />
		
			<rect
   x="976.75"
   y="499.98999"
   transform="rotate(180,977.9682,501.20155)"
   class="st3"
   width="2.4300001"
   height="2.4300001"
   id="rect426" />
	</g><g
     id="g434"
     transform="translate(13.079272,-1.3079272)">
		
			<rect
   x="989.66998"
   y="492.92001"
   transform="rotate(180,993.2051,496.4561)"
   class="st3"
   width="7.0599999"
   height="7.0599999"
   id="rect430" />
		
			<rect
   x="991.98999"
   y="499.98999"
   transform="rotate(180,993.2051,501.20155)"
   class="st3"
   width="2.4300001"
   height="2.4300001"
   id="rect432" />
	</g><g
     id="g440"
     transform="translate(13.079272,-1.3079272)">
		<rect
   x="982.91998"
   y="516.76001"
   class="st3"
   width="6.75"
   height="6.75"
   id="rect436" />
		<rect
   x="985.14001"
   y="514.44"
   class="st3"
   width="2.3199999"
   height="2.3199999"
   id="rect438" />
	</g><g
     id="g446"
     transform="translate(13.079272,-1.3079272)">
		<rect
   x="991.29999"
   y="516.76001"
   class="st3"
   width="6.75"
   height="6.75"
   id="rect442" />
		<rect
   x="993.51001"
   y="514.44"
   class="st3"
   width="2.3199999"
   height="2.3199999"
   id="rect444" />
	</g><g
     id="g482"
     transform="translate(13.079272,-1.3079272)">
		
			<rect
   x="889.91998"
   y="339.76001"
   transform="rotate(-90,906.2659,383.6308)"
   class="st1"
   width="32.689999"
   height="87.75"
   id="rect448" />
		
			<rect
   x="859.87"
   y="357.45001"
   transform="rotate(-90,867.66875,359.48185)"
   class="st3"
   width="15.61"
   height="4.0599999"
   id="rect450" />
		
			<rect
   x="871.02002"
   y="357.45001"
   transform="rotate(-90,878.8266,359.4819)"
   class="st3"
   width="15.61"
   height="4.0599999"
   id="rect452" />
		
			<rect
   x="882.17999"
   y="357.45001"
   transform="rotate(-90,889.9845,359.4819)"
   class="st3"
   width="15.61"
   height="4.0599999"
   id="rect454" />
		
			<rect
   x="893.34003"
   y="357.45001"
   transform="rotate(-90,901.1424,359.4819)"
   class="st3"
   width="15.61"
   height="4.0599999"
   id="rect456" />
		
			<rect
   x="904.5"
   y="357.45001"
   transform="rotate(-90,912.30025,359.48185)"
   class="st3"
   width="15.61"
   height="4.0599999"
   id="rect458" />
		
			<rect
   x="915.65002"
   y="357.45001"
   transform="rotate(-90,923.4582,359.4819)"
   class="st3"
   width="15.61"
   height="4.0599999"
   id="rect460" />
		
			<rect
   x="926.81"
   y="357.45001"
   transform="rotate(-90,934.61605,359.48185)"
   class="st3"
   width="15.61"
   height="4.0599999"
   id="rect462" />
		
			<rect
   x="937.96997"
   y="357.45001"
   transform="rotate(-90,945.774,359.4819)"
   class="st3"
   width="15.61"
   height="4.0599999"
   id="rect464" />
		
			<rect
   x="859.87"
   y="405.75"
   transform="rotate(-90,867.6687,407.7798)"
   class="st3"
   width="15.61"
   height="4.0599999"
   id="rect466" />
		
			<rect
   x="871.02002"
   y="405.75"
   transform="rotate(-90,878.8266,407.7798)"
   class="st3"
   width="15.61"
   height="4.0599999"
   id="rect468" />
		
			<rect
   x="882.17999"
   y="405.75"
   transform="rotate(-90,889.9845,407.7798)"
   class="st3"
   width="15.61"
   height="4.0599999"
   id="rect470" />
		
			<rect
   x="893.34003"
   y="405.75"
   transform="rotate(-90,901.14235,407.77975)"
   class="st3"
   width="15.61"
   height="4.0599999"
   id="rect472" />
		
			<rect
   x="904.5"
   y="405.75"
   transform="rotate(-90,912.3003,407.7798)"
   class="st3"
   width="15.61"
   height="4.0599999"
   id="rect474" />
		
			<rect
   x="915.65002"
   y="405.75"
   transform="rotate(-90,923.4581,407.7798)"
   class="st3"
   width="15.61"
   height="4.0599999"
   id="rect476" />
		
			<rect
   x="926.81"
   y="405.75"
   transform="rotate(-90,934.61605,407.77985)"
   class="st3"
   width="15.61"
   height="4.0599999"
   id="rect478" />
		
			<rect
   x="937.96997"
   y="405.75"
   transform="rotate(-90,945.7739,407.7798)"
   class="st3"
   width="15.61"
   height="4.0599999"
   id="rect480" />
	</g><rect
     x="469.08377"
     y="-838.69586"
     transform="rotate(90)"
     class="st3"
     width="8.3199997"
     height="34.650002"
     id="rect484" /><rect
     x="466.51947"
     y="-833.87006"
     transform="rotate(90)"
     class="st1"
     width="13.45"
     height="24.530001"
     id="rect486" /><rect
     x="556.42242"
     y="-989.60187"
     transform="rotate(90)"
     class="st3"
     width="8.3199997"
     height="29.77"
     id="rect488" /><rect
     x="553.85858"
     y="-989.66577"
     transform="rotate(90)"
     class="st1"
     width="13.45"
     height="24.530001"
     id="rect490" /><rect
     x="500.88159"
     y="-868.5968"
     transform="rotate(90)"
     class="st1"
     width="34.02"
     height="26.74"
     id="rect492" /><circle
     class="st3"
     cx="784.28931"
     cy="447.90207"
     r="20.559999"
     id="circle494" /><polyline
     class="st2"
     points="842.41,495.01 829.76,495.01 829.76,430.8 842.41,430.8  "
     id="polyline502"
     transform="translate(13.079272,-1.3079272)" /><polyline
     class="st2"
     points="875,430.8 887.65,430.8 887.65,495.01 875,495.01  "
     id="polyline504"
     transform="translate(13.079272,-1.3079272)" /><polyline
     class="st15"
     points="866.48,513 866.48,504.36 884.13,504.36 884.13,513  "
     id="polyline506"
     transform="translate(13.079272,-1.3079272)" /><polyline
     class="st15"
     points="884.13,524.64 884.13,533.27 866.48,533.27 866.48,524.64  "
     id="polyline508"
     transform="translate(13.079272,-1.3079272)" /><rect
     x="881.25928"
     y="503.95209"
     class="st3"
     width="14.23"
     height="26.709999"
     id="rect510" /><path
     class="st16"
     d="m 895.49927,527.64207 c 0,0 -3.02,-1.74 -6.93,-1.74 -3.91,0 -7.31,1.74 -7.31,1.74 v -20.65 c 0,0 5.44,1.3 7.37,1.3 1.93,0 6.87,-1.3 6.87,-1.3 z"
     id="path512" /><rect
     x="737.18927"
     y="433.19208"
     class="st17"
     width="2.5"
     height="59.900002"
     id="rect514" /><rect
     x="451.1546"
     y="-749.97986"
     transform="rotate(90)"
     class="st17"
     width="2.5"
     height="24.27"
     id="rect516" /><rect
     x="473.37018"
     y="-749.97559"
     transform="rotate(90)"
     class="st17"
     width="2.5"
     height="24.27"
     id="rect518" /><g
     id="g544"
     transform="translate(13.079272,-1.3079272)">
		<polygon
   class="st18"
   points="675.25,449.3 695.7,449.3 697.93,451.87 675.98,451.87 "
   id="polygon520" />
		<path
   class="st19"
   d="m 695.7,435.07 c 0,0 1.9,-4.71 4.01,-1.41 2.11,3.3 0.42,16.59 0.42,16.59 0,0 -0.53,2.57 -2.94,1.23 -3.59,-1.99 -1.49,-16.41 -1.49,-16.41 z"
   id="path522" />
		<path
   class="st20"
   d="m 675.25,435.07 0.63,-2.81 22.5,0.21 c 0,0 -2.32,0.14 -2.67,2.6 z"
   id="path524" />
		<circle
   class="st21"
   cx="736.34003"
   cy="442.17999"
   r="7.1199999"
   id="circle526" />
		<circle
   class="st22"
   cx="736.34003"
   cy="442.17999"
   r="4.29"
   id="circle528" />
		<g
   id="g534">
			<rect
   x="635.06"
   y="439.47"
   class="st3"
   width="40.189999"
   height="5.4099998"
   id="rect530" />
			<polyline
   class="st3"
   points="635.06,439.47 629.57,440.65 629.57,443.7 635.06,444.88    "
   id="polyline532" />
		</g>
		<path
   class="st23"
   d="m 695.7,449.3 h -20.46 c 0,0 -0.39,-2.19 -0.39,-7.15 0,-4.96 0.39,-7.08 0.39,-7.08 h 20.46 z"
   id="path536" />
		<rect
   x="707.15997"
   y="435.56"
   class="st21"
   width="13.43"
   height="13.85"
   id="rect538" />
		<circle
   class="st22"
   cx="714.27002"
   cy="442.48001"
   r="4.29"
   id="circle540" />
		<rect
   x="697.92999"
   y="439.47"
   class="st3"
   width="39.580002"
   height="5.4099998"
   id="rect542" />
	</g><g
     id="g570"
     transform="translate(13.079272,-1.3079272)">
		<polygon
   class="st18"
   points="675.25,471.69 695.7,471.69 697.93,474.26 675.98,474.26 "
   id="polygon546" />
		<path
   class="st19"
   d="m 695.7,457.46 c 0,0 1.9,-4.71 4.01,-1.41 2.11,3.3 0.42,16.59 0.42,16.59 0,0 -0.53,2.57 -2.94,1.23 -3.59,-1.99 -1.49,-16.41 -1.49,-16.41 z"
   id="path548" />
		<path
   class="st20"
   d="m 675.25,457.46 0.63,-2.81 22.5,0.21 c 0,0 -2.32,0.14 -2.67,2.6 z"
   id="path550" />
		<circle
   class="st21"
   cx="736.34003"
   cy="464.57001"
   r="7.1199999"
   id="circle552" />
		<circle
   class="st21"
   cx="713.88"
   cy="464.57001"
   r="7.1199999"
   id="circle554" />
		<circle
   class="st22"
   cx="736.34003"
   cy="464.57001"
   r="4.29"
   id="circle556" />
		<g
   id="g562">
			<rect
   x="635.06"
   y="461.85999"
   class="st3"
   width="40.189999"
   height="5.4099998"
   id="rect558" />
			<polyline
   class="st3"
   points="635.06,461.86 629.57,463.04 629.57,466.1 635.06,467.27    "
   id="polyline560" />
		</g>
		<path
   class="st23"
   d="m 695.7,471.69 h -20.46 c 0,0 -0.39,-2.19 -0.39,-7.15 0,-4.96 0.39,-7.08 0.39,-7.08 h 20.46 z"
   id="path564" />
		<circle
   class="st22"
   cx="713.88"
   cy="464.57001"
   r="4.29"
   id="circle566" />
		<rect
   x="697.92999"
   y="461.85999"
   class="st3"
   width="39.580002"
   height="5.4099998"
   id="rect568" />
	</g><g
     id="g596"
     transform="translate(13.079272,-1.3079272)">
		<polygon
   class="st18"
   points="675.25,492.97 695.7,492.97 697.93,495.54 675.98,495.54 "
   id="polygon572" />
		<path
   class="st19"
   d="m 695.7,478.73 c 0,0 1.9,-4.71 4.01,-1.41 2.11,3.3 0.42,16.59 0.42,16.59 0,0 -0.53,2.57 -2.94,1.23 -3.59,-1.99 -1.49,-16.41 -1.49,-16.41 z"
   id="path574" />
		<path
   class="st20"
   d="m 675.25,478.73 0.63,-2.81 22.5,0.21 c 0,0 -2.32,0.14 -2.67,2.6 z"
   id="path576" />
		<circle
   class="st21"
   cx="736.34003"
   cy="485.85001"
   r="7.1199999"
   id="circle578" />
		<circle
   class="st21"
   cx="714.27002"
   cy="485.85001"
   r="7.1199999"
   id="circle580" />
		<circle
   class="st22"
   cx="736.34003"
   cy="485.85001"
   r="4.29"
   id="circle582" />
		<g
   id="g588">
			<rect
   x="635.06"
   y="483.14001"
   class="st3"
   width="40.189999"
   height="5.4099998"
   id="rect584" />
			<polyline
   class="st3"
   points="635.06,483.14 629.57,484.31 629.57,487.37 635.06,488.55    "
   id="polyline586" />
		</g>
		<path
   class="st23"
   d="m 695.7,492.97 h -20.46 c 0,0 -0.39,-2.19 -0.39,-7.15 0,-4.96 0.39,-7.08 0.39,-7.08 h 20.46 z"
   id="path590" />
		<circle
   class="st22"
   cx="714.27002"
   cy="485.84"
   r="4.29"
   id="circle592" />
		<rect
   x="697.92999"
   y="483.14001"
   class="st3"
   width="39.580002"
   height="5.4099998"
   id="rect594" />
	</g><rect
     x="1304.2092"
     y="345.17209"
     class="st1"
     width="25.48"
     height="38.099998"
     id="rect598" /><rect
     x="1329.6992"
     y="355.09207"
     class="st24"
     width="22.780001"
     height="18.280001"
     id="rect617"
     style="fill:url(#SVGID_1_)" /><rect
     x="1310.4993"
     y="348.27206"
     class="st25"
     width="2.53"
     height="6.0100002"
     id="rect619" /><rect
     x="1310.4993"
     y="374.21207"
     class="st25"
     width="2.53"
     height="6.0100002"
     id="rect621" /><text
     transform="rotate(-90)"
     class="st17 st26 st27"
     id="text623"
     x="-383.27917"
     y="1291.9343">RESET</text><rect
     x="650.06927"
     y="560.58209"
     class="st2"
     width="98.25"
     height="80.809998"
     id="rect625" /><g
     id="g657"
     transform="translate(13.079272,-1.3079272)">
		<path
   class="st21"
   d="m 713.65,620.89 v -34.31 h 22.58 c 0,0 4.07,0.85 4.07,3.73 0,2.88 0,22.44 0,25.93 0,3.49 -4.16,4.65 -4.16,4.65 z"
   id="path627" />
		<g
   id="g655">
			<polygon
   class="st21"
   points="694.65,655.3 690,651.15 690,628.66 724.31,628.66 724.31,651.24 720.59,655.3 "
   id="polygon629" />
			<g
   id="g653">
				
					<linearGradient
   id="SVGID_00000101802524389034958210000018138767545744162722_"
   gradientUnits="userSpaceOnUse"
   x1="1287.6704"
   y1="-215.20309"
   x2="1371.5936"
   y2="-215.20309"
   gradientTransform="rotate(90,571.5281,-153.0624)">
					<stop
   offset="0"
   style="stop-color:#121212"
   id="stop631" />
					<stop
   offset="0.2709"
   style="stop-color:#262626"
   id="stop633" />
					<stop
   offset="0.4553"
   style="stop-color:#171717"
   id="stop635" />
					<stop
   offset="1"
   style="stop-color:#2D2A29"
   id="stop637" />
				</linearGradient>
				<polygon
   style="fill:url(#SVGID_00000101802524389034958210000018138767545744162722_)"
   points="620.12,647 620.12,563.08 647.21,563.08 647.21,647 "
   id="polygon640" />
				
					<linearGradient
   id="SVGID_00000183967966250043638670000004638691764201765763_"
   gradientUnits="userSpaceOnUse"
   x1="1291.257"
   y1="-272.42819"
   x2="1366.5729"
   y2="-272.42819"
   gradientTransform="rotate(90,571.5281,-153.0624)">
					<stop
   offset="0"
   style="stop-color:#121212"
   id="stop642" />
					<stop
   offset="0.2709"
   style="stop-color:#262626"
   id="stop644" />
					<stop
   offset="0.4553"
   style="stop-color:#171717"
   id="stop646" />
					<stop
   offset="1"
   style="stop-color:#2D2A29"
   id="stop648" />
				</linearGradient>
				<polygon
   style="fill:url(#SVGID_00000183967966250043638670000004638691764201765763_)"
   points="647.22,641.98 647.22,566.67 734.57,566.67 734.57,641.98 "
   id="polygon651" />
			</g>
		</g>
	</g><text
     class="st17 st26 st30"
     id="text659"
     x="702.56128"
     y="685.84369">6-12V</text><rect
     x="1193.0692"
     y="418.47208"
     class="st1"
     width="23.030001"
     height="95.709999"
     id="rect661" /><rect
     x="1195.3693"
     y="423.86209"
     width="18.42"
     height="18.42"
     id="rect663" /><rect
     x="1195.3693"
     y="446.37207"
     width="18.42"
     height="18.42"
     id="rect665" /><rect
     x="1195.3693"
     y="468.88208"
     width="18.42"
     height="18.42"
     id="rect667" /><rect
     x="1195.3693"
     y="491.39209"
     width="18.42"
     height="18.42"
     id="rect669" /><rect
     x="1297.2593"
     y="549.47211"
     class="st1"
     width="41.02"
     height="95.120003"
     id="rect671" /><path
     class="st31"
     d="m 1310.8693,549.47207 v 9.91 c 0,0 0.18,5.06 -2.95,5.06 -4.22,0 -5.27,0.42 -5.27,1.95 0,1.53 0,6.64 0,6.64 0,0 0.21,3.16 -2.43,3.16 -2.64,0 -2.95,0 -2.95,0 v -26.73 h 13.6 z"
     id="path673" /><path
     class="st31"
     d="m 1310.8693,644.59207 v -9.91 c 0,0 0.18,-5.06 -2.95,-5.06 -4.22,0 -5.27,-0.42 -5.27,-1.95 0,-1.53 0,-6.64 0,-6.64 0,0 0.21,-3.16 -2.43,-3.16 -2.64,0 -2.95,0 -2.95,0 v 26.73 h 13.6 z"
     id="path675" /><path
     class="st31"
     d="m 1297.2593,585.68207 h 8.65 c 0,0 5.41,0.07 5.41,5.41 0,5.34 0,13.64 0,13.64 0,0 0.42,4.71 -4.22,4.71 -4.64,0 -9.84,0 -9.84,0 z"
     id="path677" /><path
     class="st1"
     d="m 1366.7793,581.74207 c -0.05,-1.19 -0.8,-1.14 -1.71,-1.82 -0.53,-0.39 -0.81,-1.44 -0.14,-1.93 0.79,-0.58 1.83,-0.81 1.83,-1.77 0,-0.96 -0.81,-1.38 -1.69,-1.69 -0.88,-0.31 -0.84,-1.74 0.14,-2.36 1.41,-0.88 1.59,-2.57 1.05,-3.3 -0.39,-0.53 -1.2,-0.53 -1.2,-0.53 h -26.79 v 26.86 h 26.79 c 0,0 0.84,0.06 1.2,-0.26 0.28,-0.25 0.72,-0.65 0.52,-1.57 -0.16,-0.71 -1.18,-1.38 -1.71,-1.76 -0.98,-0.7 -0.72,-1.87 0,-2.32 0.72,-0.45 1.71,-0.87 1.71,-1.82 0,-0.95 -0.67,-1.18 -1.71,-1.82 -0.84,-0.51 -0.77,-1.64 0,-2.11 0.54,-0.31 1.76,-0.57 1.71,-1.8 z"
     id="path679" /><circle
     class="st3"
     cx="1273.0292"
     cy="569.47211"
     r="8.5799999"
     id="circle681" /><path
     class="st14"
     d="m 1273.0293,566.73207 v 7.17 h 18.91 c 0,0 5.33,3.2 5.33,5.1 v -5.1 -7.17 z"
     id="path683" /><circle
     class="st3"
     cx="1273.0292"
     cy="596.56207"
     r="8.5799999"
     id="circle685" /><path
     class="st14"
     d="m 1273.0293,593.82207 v 7.17 h 18.91 c 0,0 5.33,3.2 5.33,5.1 v -5.1 -7.17 z"
     id="path687" /><circle
     class="st3"
     cx="1273.0292"
     cy="622.4021"
     r="8.5799999"
     id="circle689" /><path
     class="st14"
     d="m 1273.0293,619.65207 v 7.17 h 18.91 c 0,0 5.33,3.2 5.33,5.1 v -5.1 -7.17 z"
     id="path691" /><rect
     x="1166.2192"
     y="593.3421"
     class="st1"
     width="105.17"
     height="117.69"
     id="rect693" /><rect
     x="705.82928"
     y="301.66208"
     class="st3"
     width="7.8000002"
     height="4.8499999"
     id="rect695" /><rect
     x="705.82928"
     y="308.41208"
     class="st3"
     width="7.8000002"
     height="4.8499999"
     id="rect697" /><rect
     x="705.82928"
     y="350.59207"
     class="st3"
     width="7.8000002"
     height="4.8499999"
     id="rect699" /><rect
     x="705.82928"
     y="357.34207"
     class="st3"
     width="7.8000002"
     height="4.8499999"
     id="rect701" /><rect
     x="705.82928"
     y="315.68207"
     class="st3"
     width="7.8000002"
     height="2.4300001"
     id="rect703" /><rect
     x="705.82928"
     y="319.92209"
     class="st3"
     width="7.8000002"
     height="2.4300001"
     id="rect705" /><rect
     x="705.82928"
     y="324.15207"
     class="st3"
     width="7.8000002"
     height="2.4300001"
     id="rect707" /><rect
     x="705.82928"
     y="328.39209"
     class="st3"
     width="7.8000002"
     height="2.4300001"
     id="rect709" /><rect
     x="705.82928"
     y="332.72208"
     class="st3"
     width="7.8000002"
     height="2.4300001"
     id="rect711" /><rect
     x="705.82928"
     y="336.96207"
     class="st3"
     width="7.8000002"
     height="2.4300001"
     id="rect713" /><rect
     x="705.82928"
     y="341.54208"
     class="st3"
     width="7.8000002"
     height="2.4300001"
     id="rect715" /><rect
     x="705.82928"
     y="345.77206"
     class="st3"
     width="7.8000002"
     height="2.4300001"
     id="rect717" /><path
     class="st3"
     d="m 708.87927,295.74207 h -14.01 c -1.23,0 -2.22,-0.99 -2.22,-2.22 v -5.03 c 0,-1.23 0.99,-2.22 2.22,-2.22 h 14.01 c 1.23,0 2.22,0.99 2.22,2.22 v 5.03 c 0,1.22 -0.99,2.22 -2.22,2.22 z"
     id="path719" /><path
     class="st3"
     d="m 672.07927,295.74207 h -14.01 c -1.23,0 -2.22,-0.99 -2.22,-2.22 v -5.03 c 0,-1.23 0.99,-2.22 2.22,-2.22 h 14.01 c 1.23,0 2.22,0.99 2.22,2.22 v 5.03 c 0,1.22 -1,2.22 -2.22,2.22 z"
     id="path721" /><path
     class="st3"
     d="m 707.60927,374.76207 h -14.01 c -1.23,0 -2.22,-0.99 -2.22,-2.22 v -5.03 c 0,-1.23 0.99,-2.22 2.22,-2.22 h 14.01 c 1.23,0 2.22,0.99 2.22,2.22 v 5.03 c 0.01,1.22 -0.99,2.22 -2.22,2.22 z"
     id="path723" /><path
     class="st3"
     d="m 672.07927,375.32207 h -14.01 c -1.23,0 -2.22,-0.99 -2.22,-2.22 v -5.03 c 0,-1.23 0.99,-2.22 2.22,-2.22 h 14.01 c 1.23,0 2.22,0.99 2.22,2.22 v 5.03 c 0,1.23 -1,2.22 -2.22,2.22 z"
     id="path725" /><g
     id="g748"
     transform="translate(13.079272,-1.3079272)">
		
			<linearGradient
   id="SVGID_00000098195447696378761290000008783710724039696300_"
   gradientUnits="userSpaceOnUse"
   x1="657.92133"
   y1="371.32791"
   x2="657.92133"
   y2="293.05429">
			<stop
   offset="0"
   style="stop-color:#949495"
   id="stop727" />
			<stop
   offset="0.1145"
   style="stop-color:#DCDDDD"
   id="stop729" />
			<stop
   offset="0.5391"
   style="stop-color:#DCDDDD"
   id="stop731" />
			<stop
   offset="0.8911"
   style="stop-color:#DCDDDD"
   id="stop733" />
			<stop
   offset="1"
   style="stop-color:#949495"
   id="stop735" />
		</linearGradient>
		
			<rect
   x="623.29999"
   y="293.04999"
   style="fill:url(#SVGID_00000098195447696378761290000008783710724039696300_)"
   width="69.239998"
   height="78.269997"
   id="rect738" />
		<path
   class="st33"
   d="m 692.54,355.92 h -8.01 c 0,0 -2,0.21 -2,-2 0,-2.21 0,-10.33 0,-10.33 0,0 -0.18,-1.84 1.65,-1.85 1.72,-0.01 1.59,1.3 1.65,2.85 h 6.72"
   id="path740" />
		<path
   class="st33"
   d="m 692.54,306.54 h -8.01 c 0,0 -2,-0.21 -2,2 0,2.21 0,10.33 0,10.33 0,0 -0.18,1.84 1.65,1.85 1.72,0.01 1.59,-1.3 1.65,-2.85 h 6.72"
   id="path742" />
		<path
   class="st34"
   d="m 672.57,320.16 h -2.24 c -0.55,0 -0.99,-0.44 -0.99,-0.99 v -11.1 c 0,-0.55 0.44,-0.99 0.99,-0.99 h 2.24 c 0.55,0 0.99,0.44 0.99,0.99 v 11.1 c 0,0.55 -0.44,0.99 -0.99,0.99 z"
   id="path744" />
		<path
   class="st34"
   d="m 672.57,355.92 h -2.24 c -0.55,0 -0.99,-0.44 -0.99,-0.99 v -11.1 c 0,-0.55 0.44,-0.99 0.99,-0.99 h 2.24 c 0.55,0 0.99,0.44 0.99,0.99 v 11.1 c 0,0.55 -0.44,0.99 -0.99,0.99 z"
   id="path746" />
	</g><rect
     x="1120.6293"
     y="353.11209"
     class="st17"
     width="1.3200001"
     height="11.78"
     id="rect750" /><circle
     style="fill:url(#SVGID_00000153679060237693156560000009790213479566062239_)"
     cx="784.28931"
     cy="447.90207"
     r="18.84"
     id="circle757" /><rect
     x="755.88928"
     y="593.3421"
     class="st1"
     width="105.17"
     height="117.69"
     id="rect780" /><g
     id="g792"
     transform="translate(13.079272,-1.3079272)">
		<rect
   x="1213.9399"
   y="424.54001"
   class="st39"
   width="54.41"
   height="83.209999"
   id="rect782" />
		<rect
   x="1268.35"
   y="424.54001"
   class="st40"
   width="54.400002"
   height="83.129997"
   id="rect784" />
		<path
   class="st41"
   d="M 1223.55,495.58 V 436.7 c 0,-1.41 1.15,-2.56 2.56,-2.56 h 84.49 c 1.41,0 2.56,1.15 2.56,2.56 v 58.89 c 0,1.41 -1.15,2.56 -2.56,2.56 h -84.49 c -1.41,-0.01 -2.56,-1.16 -2.56,-2.57 z"
   id="path786" />
		<g
   id="g790">
			<path
   d="m 1275.98,477.67 -0.64,-6.17 c 1.4,-0.18 2.5,-0.7 3.32,-1.57 0.82,-0.87 1.22,-1.87 1.22,-3 0,-1.29 -0.53,-2.39 -1.58,-3.29 -1.05,-0.9 -2.64,-1.35 -4.75,-1.35 -1.98,0 -3.47,0.44 -4.47,1.33 -0.99,0.89 -1.49,2.05 -1.49,3.47 0,1.78 0.79,3.37 2.36,4.78 l -0.73,5.03 -16.82,-3.18 v -16.38 h 5.8 v 11.69 l 5.49,0.97 c -0.69,-1.38 -1.04,-2.79 -1.04,-4.23 0,-2.75 1,-5.08 3,-6.99 2,-1.91 4.59,-2.87 7.78,-2.87 2.66,0 5.04,0.77 7.12,2.32 2.85,2.1 4.28,5.02 4.28,8.75 0,2.98 -0.8,5.42 -2.4,7.3 -1.59,1.9 -3.75,3.02 -6.45,3.39 z"
   id="path788" />
		</g>
	</g><g
     id="g806"
     transform="translate(13.079272,-1.3079272)">
		<rect
   x="756.09998"
   y="602.10999"
   class="st42"
   width="78.580002"
   height="102.76"
   id="rect794" />
		<rect
   x="795.39001"
   y="602.10999"
   class="st43"
   width="39.290001"
   height="51.380001"
   id="rect796" />
		<rect
   x="756.09998"
   y="653.5"
   class="st44"
   width="78.580002"
   height="51.380001"
   id="rect798" />
		<path
   class="st41"
   d="m 767.59,611.18 h 55.61 c 1.33,0 2.42,1.09 2.42,2.42 v 79.79 c 0,1.33 -1.09,2.42 -2.42,2.42 h -55.61 c -1.33,0 -2.42,-1.09 -2.42,-2.42 V 613.6 c 0,-1.33 1.09,-2.42 2.42,-2.42 z"
   id="path800" />
		<g
   id="g804">
			<path
   d="m 784.53,661.49 5.66,-0.62 c 0.14,1.15 0.5,2.01 1.08,2.56 0.58,0.55 1.35,0.83 2.31,0.83 1.21,0 2.23,-0.55 3.08,-1.67 0.85,-1.11 1.39,-3.42 1.62,-6.91 -1.47,1.71 -3.31,2.56 -5.52,2.56 -2.4,0 -4.48,-0.93 -6.22,-2.78 -1.74,-1.85 -2.61,-4.27 -2.61,-7.24 0,-3.1 0.92,-5.59 2.76,-7.49 1.84,-1.9 4.18,-2.84 7.03,-2.84 3.09,0 5.64,1.2 7.62,3.59 1.98,2.39 2.98,6.33 2.98,11.82 0,5.58 -1.04,9.61 -3.1,12.08 -2.07,2.47 -4.76,3.71 -8.08,3.71 -2.39,0 -4.32,-0.64 -5.79,-1.91 -1.46,-1.26 -2.41,-3.16 -2.82,-5.69 z m 13.24,-12.78 c 0,-1.89 -0.44,-3.35 -1.3,-4.39 -0.87,-1.04 -1.87,-1.56 -3.01,-1.56 -1.08,0 -1.98,0.43 -2.7,1.28 -0.72,0.85 -1.07,2.25 -1.07,4.2 0,1.97 0.39,3.42 1.17,4.34 0.78,0.92 1.75,1.38 2.92,1.38 1.12,0 2.07,-0.44 2.84,-1.33 0.76,-0.9 1.15,-2.2 1.15,-3.92 z"
   id="path802" />
		</g>
	</g><g
     id="g824"
     transform="translate(13.079272,-1.3079272)">
		<g
   id="g818">
			<rect
   x="892.88"
   y="602.10999"
   class="st42"
   width="78.580002"
   height="102.76"
   id="rect808" />
			<rect
   x="932.16998"
   y="602.10999"
   class="st39"
   width="39.290001"
   height="51.380001"
   id="rect810" />
			<rect
   x="892.88"
   y="653.5"
   class="st44"
   width="39.290001"
   height="51.380001"
   id="rect812" />
			<rect
   x="932.16998"
   y="653.5"
   class="st45"
   width="39.290001"
   height="51.380001"
   id="rect814" />
			<path
   class="st41"
   d="m 904.36,611.18 h 55.61 c 1.33,0 2.42,1.09 2.42,2.42 v 79.79 c 0,1.33 -1.09,2.42 -2.42,2.42 h -55.61 c -1.33,0 -2.42,-1.09 -2.42,-2.42 V 613.6 c 0.01,-1.33 1.09,-2.42 2.42,-2.42 z"
   id="path816" />
		</g>
		<g
   id="g822">
			<path
   d="m 926.18,652.08 c -1.51,-0.64 -2.61,-1.52 -3.3,-2.63 -0.69,-1.12 -1.03,-2.34 -1.03,-3.68 0,-2.28 0.8,-4.16 2.38,-5.64 1.59,-1.49 3.85,-2.23 6.78,-2.23 2.9,0 5.15,0.74 6.76,2.23 1.6,1.49 2.41,3.37 2.41,5.64 0,1.42 -0.37,2.68 -1.1,3.78 -0.74,1.1 -1.77,1.95 -3.1,2.53 1.7,0.68 2.98,1.67 3.86,2.98 0.88,1.3 1.32,2.81 1.32,4.52 0,2.82 -0.9,5.11 -2.7,6.87 -1.8,1.76 -4.19,2.64 -7.17,2.64 -2.78,0 -5.09,-0.73 -6.93,-2.19 -2.18,-1.72 -3.27,-4.08 -3.27,-7.08 0,-1.65 0.41,-3.17 1.23,-4.55 0.81,-1.38 2.1,-2.44 3.86,-3.19 z m 0.66,7.18 c 0,1.61 0.41,2.87 1.24,3.77 0.83,0.9 1.86,1.35 3.09,1.35 1.21,0 2.21,-0.43 3,-1.3 0.79,-0.87 1.19,-2.12 1.19,-3.76 0,-1.43 -0.4,-2.58 -1.21,-3.45 -0.8,-0.87 -1.82,-1.3 -3.06,-1.3 -1.43,0 -2.49,0.49 -3.2,1.48 -0.69,0.99 -1.05,2.06 -1.05,3.21 z m 0.55,-13.07 c 0,1.17 0.33,2.08 0.99,2.73 0.66,0.65 1.54,0.98 2.63,0.98 1.11,0 2,-0.33 2.67,-0.99 0.67,-0.66 1,-1.57 1,-2.74 0,-1.1 -0.33,-1.98 -0.99,-2.63 -0.66,-0.66 -1.53,-0.99 -2.61,-0.99 -1.12,0 -2.02,0.33 -2.69,1 -0.67,0.66 -1,1.54 -1,2.64 z"
   id="path820" />
		</g>
	</g><g
     id="g842"
     transform="translate(13.079272,-1.3079272)">
		<g
   id="g836">
			<rect
   x="1029.66"
   y="602.10999"
   class="st42"
   width="78.580002"
   height="102.76"
   id="rect826" />
			<rect
   x="1068.95"
   y="602.10999"
   class="st39"
   width="39.290001"
   height="51.380001"
   id="rect828" />
			<rect
   x="1029.66"
   y="653.5"
   class="st44"
   width="39.290001"
   height="51.380001"
   id="rect830" />
			<rect
   x="1068.95"
   y="653.5"
   class="st45"
   width="39.290001"
   height="51.380001"
   id="rect832" />
			<path
   class="st41"
   d="m 1041.14,611.18 h 55.61 c 1.33,0 2.42,1.09 2.42,2.42 v 79.79 c 0,1.33 -1.09,2.42 -2.42,2.42 h -55.61 c -1.33,0 -2.42,-1.09 -2.42,-2.42 V 613.6 c 0,-1.33 1.09,-2.42 2.42,-2.42 z"
   id="path834" />
		</g>
		<g
   id="g840">
			<path
   d="m 1057.92,643.87 v -5.44 h 20.01 v 4.25 c -1.65,1.62 -3.33,3.96 -5.04,7 -1.71,3.04 -3.01,6.27 -3.9,9.69 -0.9,3.42 -1.33,6.48 -1.32,9.17 h -5.64 c 0.1,-4.22 0.97,-8.52 2.61,-12.91 1.65,-4.39 3.84,-8.31 6.59,-11.77 h -13.31 z"
   id="path838" />
		</g>
	</g><g
     id="g860"
     transform="translate(13.079272,-1.3079272)">
		<g
   id="g854">
			<rect
   x="1166.4399"
   y="602.10999"
   class="st42"
   width="78.580002"
   height="102.76"
   id="rect844" />
			<rect
   x="1205.73"
   y="602.10999"
   class="st39"
   width="39.290001"
   height="51.380001"
   id="rect846" />
			<rect
   x="1166.4399"
   y="653.5"
   class="st44"
   width="39.290001"
   height="51.380001"
   id="rect848" />
			<rect
   x="1205.73"
   y="653.5"
   class="st45"
   width="39.290001"
   height="51.380001"
   id="rect850" />
			<path
   class="st41"
   d="m 1177.92,611.18 h 55.61 c 1.33,0 2.42,1.09 2.42,2.42 v 79.79 c 0,1.33 -1.09,2.42 -2.42,2.42 h -55.61 c -1.33,0 -2.42,-1.09 -2.42,-2.42 V 613.6 c 0,-1.33 1.09,-2.42 2.42,-2.42 z"
   id="path852" />
		</g>
		<g
   id="g858">
			<path
   d="m 1214.51,645.5 -5.66,0.62 c -0.14,-1.17 -0.5,-2.03 -1.08,-2.58 -0.58,-0.55 -1.34,-0.83 -2.27,-0.83 -1.24,0 -2.28,0.55 -3.13,1.67 -0.85,1.11 -1.39,3.42 -1.61,6.93 1.46,-1.72 3.27,-2.58 5.44,-2.58 2.44,0 4.54,0.93 6.28,2.79 1.74,1.86 2.61,4.26 2.61,7.21 0,3.12 -0.92,5.63 -2.75,7.52 -1.83,1.89 -4.19,2.83 -7.06,2.83 -3.08,0 -5.62,-1.2 -7.6,-3.59 -1.99,-2.39 -2.98,-6.32 -2.98,-11.78 0,-5.59 1.03,-9.63 3.1,-12.1 2.07,-2.47 4.75,-3.71 8.06,-3.71 2.32,0 4.24,0.65 5.76,1.95 1.5,1.29 2.47,3.18 2.89,5.65 z m -13.27,12.76 c 0,1.9 0.44,3.37 1.31,4.4 0.87,1.03 1.87,1.55 3,1.55 1.08,0 1.98,-0.42 2.71,-1.27 0.72,-0.85 1.08,-2.24 1.08,-4.17 0,-1.99 -0.39,-3.44 -1.17,-4.36 -0.78,-0.92 -1.75,-1.38 -2.92,-1.38 -1.12,0 -2.08,0.44 -2.85,1.32 -0.77,0.89 -1.16,2.19 -1.16,3.91 z"
   id="path856" />
		</g>
	</g><g
     id="g874"
     transform="translate(13.079272,-1.3079272)">
		<rect
   x="753.78998"
   y="223.38"
   class="st42"
   width="83.209999"
   height="108.81"
   id="rect862" />
		<rect
   x="753.78998"
   y="277.79001"
   class="st43"
   width="41.599998"
   height="54.400002"
   id="rect864" />
		<rect
   x="753.78998"
   y="223.38"
   class="st44"
   width="83.209999"
   height="54.400002"
   id="rect866" />
		<path
   class="st41"
   d="m 824.83,322.59 h -58.89 c -1.41,0 -2.56,-1.15 -2.56,-2.56 v -84.49 c 0,-1.41 1.15,-2.56 2.56,-2.56 h 58.89 c 1.41,0 2.56,1.15 2.56,2.56 v 84.49 c 0,1.41 -1.15,2.56 -2.56,2.56 z"
   id="path868" />
		<g
   id="g872">
			<path
   d="m 788.37,261.56 h 6.2 v 23.35 c 2.26,-2.12 4.93,-3.68 8,-4.7 v 5.62 c -1.62,0.53 -3.37,1.53 -5.27,3.01 -1.9,1.48 -3.2,3.2 -3.9,5.17 h -5.03 z"
   id="path870" />
		</g>
	</g><g
     id="g27877"
     transform="translate(-175.95161,170.40254)"><rect
       x="1077.6036"
       y="110.83739"
       class="st39"
       width="83.217987"
       height="54.400002"
       id="rect878"
       style="stroke-width:1.41437" /><rect
       x="1077.8169"
       y="56.427383"
       class="st44"
       width="82.986778"
       height="54.400002"
       id="rect880"
       style="stroke-width:1.4124" /><path
       class="st41"
       d="m 1148.6436,155.63739 h -58.89 c -1.41,0 -2.56,-1.15 -2.56,-2.56 v -84.49 c 0,-1.41 1.15,-2.56 2.56,-2.56 h 58.89 c 1.41,0 2.56,1.15 2.56,2.56 v 84.49 c 0,1.41 -1.15,2.56 -2.56,2.56 z"
       id="path884" /><g
       id="g890"
       transform="translate(187.03359,-168.72261)">
			<path
   d="m 921.37,269.08 v -5.76 h 21.72 c -0.23,2.18 -0.94,4.24 -2.12,6.19 -1.18,1.95 -3.5,4.53 -6.97,7.75 -2.79,2.6 -4.51,4.37 -5.14,5.29 -0.85,1.28 -1.28,2.54 -1.28,3.79 0,1.38 0.37,2.44 1.11,3.19 0.74,0.74 1.77,1.11 3.08,1.11 1.29,0 2.32,-0.39 3.09,-1.17 0.77,-0.78 1.21,-2.07 1.32,-3.88 l 6.17,0.62 c -0.37,3.41 -1.52,5.86 -3.46,7.34 -1.94,1.49 -4.37,2.23 -7.28,2.23 -3.19,0 -5.7,-0.86 -7.52,-2.58 -1.82,-1.72 -2.73,-3.86 -2.73,-6.42 0,-1.46 0.26,-2.84 0.78,-4.16 0.52,-1.32 1.35,-2.69 2.48,-4.13 0.75,-0.96 2.1,-2.33 4.06,-4.12 1.96,-1.79 3.19,-2.98 3.72,-3.57 0.52,-0.59 0.94,-1.16 1.27,-1.72 z"
   id="path888" />
		</g></g><g
     id="g910"
     transform="translate(13.079272,-1.3079272)">
		<g
   id="g904">
			<rect
   x="1027.35"
   y="225.14999"
   class="st42"
   width="83.209999"
   height="108.81"
   id="rect894" />
			<rect
   x="1027.35"
   y="279.56"
   class="st39"
   width="41.599998"
   height="54.400002"
   id="rect896" />
			<rect
   x="1068.95"
   y="225.14999"
   class="st44"
   width="41.599998"
   height="54.400002"
   id="rect898" />
			<rect
   x="1027.35"
   y="225.14999"
   class="st45"
   width="41.599998"
   height="54.400002"
   id="rect900" />
			<path
   class="st41"
   d="m 1098.39,324.36 h -58.89 c -1.41,0 -2.56,-1.15 -2.56,-2.56 v -84.49 c 0,-1.41 1.15,-2.56 2.56,-2.56 h 58.89 c 1.41,0 2.56,1.15 2.56,2.56 v 84.49 c 0,1.41 -1.15,2.56 -2.56,2.56 z"
   id="path902" />
		</g>
		<g
   id="g908">
			<path
   d="m 1079.72,272.46 -6,0.73 c -0.19,-1.53 -0.71,-2.7 -1.54,-3.51 -0.84,-0.81 -1.85,-1.21 -3.04,-1.21 -1.28,0 -2.36,0.49 -3.23,1.46 -0.87,0.97 -1.31,2.28 -1.31,3.92 0,1.56 0.42,2.79 1.26,3.7 0.84,0.91 1.86,1.37 3.06,1.37 0.79,0 1.74,-0.15 2.84,-0.46 l -0.68,5.05 c -1.68,-0.04 -2.95,0.32 -3.84,1.09 -0.88,0.77 -1.32,1.8 -1.32,3.08 0,1.09 0.32,1.95 0.97,2.6 0.65,0.65 1.51,0.97 2.58,0.97 1.06,0 1.96,-0.37 2.71,-1.1 0.75,-0.74 1.21,-1.81 1.37,-3.22 l 5.71,0.97 c -0.4,1.95 -1,3.52 -1.8,4.69 -0.8,1.17 -1.92,2.09 -3.35,2.76 -1.43,0.67 -3.04,1 -4.82,1 -3.04,0 -5.48,-0.97 -7.32,-2.91 -1.51,-1.59 -2.27,-3.38 -2.27,-5.38 0,-2.84 1.55,-5.1 4.65,-6.79 -1.85,-0.4 -3.33,-1.29 -4.44,-2.67 -1.11,-1.38 -1.66,-3.05 -1.66,-5.01 0,-2.84 1.04,-5.26 3.11,-7.25 2.07,-2 4.65,-3 7.74,-3 2.93,0 5.35,0.84 7.28,2.52 1.92,1.68 3.04,3.88 3.34,6.6 z"
   id="path906" />
		</g>
	</g><g
     id="g928"
     transform="translate(13.079272,-1.3079272)">
		<g
   id="g922">
			<rect
   x="1164.12"
   y="225.14999"
   class="st42"
   width="83.209999"
   height="108.81"
   id="rect912" />
			<rect
   x="1164.12"
   y="279.56"
   class="st39"
   width="41.599998"
   height="54.400002"
   id="rect914" />
			<rect
   x="1205.73"
   y="225.14999"
   class="st44"
   width="41.599998"
   height="54.400002"
   id="rect916" />
			<rect
   x="1164.12"
   y="225.14999"
   class="st45"
   width="41.599998"
   height="54.400002"
   id="rect918" />
			<path
   class="st41"
   d="m 1235.17,324.36 h -58.89 c -1.41,0 -2.56,-1.15 -2.56,-2.56 v -84.49 c 0,-1.41 1.15,-2.56 2.56,-2.56 h 58.89 c 1.41,0 2.56,1.15 2.56,2.56 v 84.49 c 0,1.41 -1.15,2.56 -2.56,2.56 z"
   id="path920" />
		</g>
		<g
   id="g926">
			<path
   d="m 1204.14,263.33 v 6.5 h 13.23 v 5.42 l -14.02,20.53 h -5.2 v -20.51 h -4.01 v -5.45 h 4.01 v -6.5 h 5.99 z m 0,11.95 v 11.05 l 7.43,-11.05 z"
   id="path924" />
		</g>
	</g><path
     class="st46"
     d="M 1315.3893,209.43207 H 664.31927 c -17.18,0 -31.11,14.04 -31.11,31.35 v 448.09 c 0,17.32 13.93,31.35 31.11,31.35 h 651.07003 c 17.18,0 31.11,-14.04 31.11,-31.35 v -448.08 c 0,-17.32 -13.93,-31.36 -31.11,-31.36 z m 20.91,471.37 c 0,16.69 -13.53,30.22 -30.22,30.22 H 673.62927 c -16.69,0 -30.22,-13.53 -30.22,-30.22 v -431.95 c 0,-16.69 13.53,-30.22 30.22,-30.22 h 632.45003 c 16.69,0 30.22,13.53 30.22,30.22 z"
     id="path930" /><path
     d="M 1206.7493,350.07207 H 994.52927 c -5.26,0 -9.52,4.26 -9.52,9.52 v 39.2 l 6.89,4.02 v 125.78 l -6.89,4.73 v 38.49 c 0,5.26 4.26,9.52 9.52,9.52 h 212.22003 c 5.26,0 9.52,-4.26 9.52,-9.52 v -212.22 c 0,-5.26 -4.27,-9.52 -9.52,-9.52 z m -195.92,213.94 c 0,5.23 -4.24,9.46 -9.46,9.46 h -0.01 c -5.23003,0 -9.46003,-4.24 -9.46003,-9.46 v -15.62 c 0,-5.23 4.24,-9.46 9.46003,-9.46 h 0.01 c 5.23,0 9.46,4.24 9.46,9.46 z m 0,-180.99 c 0,5.23 -4.24,9.46 -9.46,9.46 h -0.01 c -5.23003,0 -9.46003,-4.24 -9.46003,-9.46 v -15.62 c 0,-5.23 4.24,-9.46 9.46003,-9.46 h 0.01 c 5.23,0 9.46,4.24 9.46,9.46 z m 195.44,180.99 c 0,5.23 -4.24,9.46 -9.46,9.46 h -0.01 c -5.23,0 -9.46,-4.24 -9.46,-9.46 v -15.62 c 0,-5.23 4.24,-9.46 9.46,-9.46 h 0.01 c 5.23,0 9.46,4.24 9.46,9.46 z m 0,-180.99 c 0,5.23 -4.24,9.46 -9.46,9.46 h -0.01 c -5.23,0 -9.46,-4.24 -9.46,-9.46 v -15.62 c 0,-5.23 4.24,-9.46 9.46,-9.46 h 0.01 c 5.23,0 9.46,4.24 9.46,9.46 z"
     id="path932" /><rect
     x="991.88928"
     y="402.81207"
     class="st4"
     width="68.400002"
     height="125.78"
     id="rect934" /><rect
     x="1060.2892"
     y="365.39209"
     class="st47"
     width="120.4"
     height="200.63"
     id="rect936"
     style="fill:#4d4d4d" /><path
     class="st3"
     d="m 1003.8493,393.36207 h -4.99003 c -4.33,0 -7.85,-3.52 -7.85,-7.85 v -20.6 c 0,-4.33 3.52,-7.85 7.85,-7.85 h 4.99003 c 4.33,0 7.85,3.52 7.85,7.85 v 20.6 c 0,4.33 -3.52,7.85 -7.85,7.85 z m -4.98003,-34.55 c -3.36,0 -6.1,2.73 -6.1,6.1 v 20.6 c 0,3.36 2.73,6.1 6.1,6.1 h 4.99003 c 3.36,0 6.1,-2.73 6.1,-6.1 v -20.6 c 0,-3.36 -2.73,-6.1 -6.1,-6.1 z"
     id="path938"
     style="fill:#1a1a1a" /><path
     class="st3"
     d="m 1003.8493,574.35207 h -4.99003 c -4.33,0 -7.85,-3.52 -7.85,-7.85 v -20.6 c 0,-4.33 3.52,-7.85 7.85,-7.85 h 4.99003 c 4.33,0 7.85,3.52 7.85,7.85 v 20.6 c 0,4.33 -3.52,7.85 -7.85,7.85 z m -4.98003,-34.55 c -3.36,0 -6.1,2.74 -6.1,6.1 v 20.6 c 0,3.36 2.73,6.1 6.1,6.1 h 4.99003 c 3.36,0 6.1,-2.74 6.1,-6.1 v -20.6 c 0,-3.36 -2.73,-6.1 -6.1,-6.1 z"
     id="path940"
     style="fill:#1a1a1a" /><path
     class="st3"
     d="m 1199.2993,393.36207 h -4.99 c -4.33,0 -7.85,-3.52 -7.85,-7.85 v -20.6 c 0,-4.33 3.52,-7.85 7.85,-7.85 h 4.99 c 4.33,0 7.85,3.52 7.85,7.85 v 20.6 c 0,4.33 -3.52,7.85 -7.85,7.85 z m -4.99,-34.55 c -3.36,0 -6.1,2.73 -6.1,6.1 v 20.6 c 0,3.36 2.73,6.1 6.1,6.1 h 4.99 c 3.36,0 6.1,-2.73 6.1,-6.1 v -20.6 c 0,-3.36 -2.73,-6.1 -6.1,-6.1 z"
     id="path942"
     style="fill:#1a1a1a" /><path
     class="st3"
     d="m 1199.2993,574.35207 h -4.99 c -4.33,0 -7.85,-3.52 -7.85,-7.85 v -20.6 c 0,-4.33 3.52,-7.85 7.85,-7.85 h 4.99 c 4.33,0 7.85,3.52 7.85,7.85 v 20.6 c 0,4.33 -3.52,7.85 -7.85,7.85 z m -4.99,-34.55 c -3.36,0 -6.1,2.74 -6.1,6.1 v 20.6 c 0,3.36 2.73,6.1 6.1,6.1 h 4.99 c 3.36,0 6.1,-2.74 6.1,-6.1 v -20.6 c 0,-3.36 -2.73,-6.1 -6.1,-6.1 z"
     id="path944"
     style="fill:#1a1a1a" /><polygon
     class="st48"
     points="1047.21,376.52 1035.42,391.94 1006.9,391.94 1006.9,404.12 1047.21,404.12 "
     id="polygon946"
     transform="translate(13.079272,-1.3079272)" /><polygon
     class="st48"
     points="1047.21,558.02 1035.42,542.6 1006.9,542.6 1006.9,530.42 1047.21,530.42 "
     id="polygon948"
     transform="translate(13.079272,-1.3079272)" /><g
     id="g958"
     transform="translate(13.079272,-1.3079272)">
				<circle
   class="st3"
   cx="1186.05"
   cy="437.78"
   r="5.8000002"
   id="circle950" />
				<circle
   class="st3"
   cx="1186.05"
   cy="457.26999"
   r="5.8000002"
   id="circle952" />
				<circle
   class="st3"
   cx="1186.05"
   cy="476.76001"
   r="5.8000002"
   id="circle954" />
				<circle
   class="st3"
   cx="1186.05"
   cy="496.23999"
   r="5.8000002"
   id="circle956" />
			</g><g
     id="g986"
     transform="translate(13.079272,-1.3079272)">
			<path
   class="st49"
   d="m 1172.7,431.68 h 0.62 v 2.25 h -1.97 c -0.28,-0.35 -0.48,-0.7 -0.62,-1.07 -0.14,-0.37 -0.21,-0.74 -0.21,-1.13 0,-0.52 0.11,-1 0.33,-1.42 0.22,-0.43 0.55,-0.75 0.97,-0.97 0.42,-0.22 0.9,-0.33 1.42,-0.33 0.52,0 1,0.11 1.45,0.33 0.45,0.22 0.78,0.53 1,0.93 0.22,0.41 0.33,0.87 0.33,1.4 0,0.38 -0.06,0.73 -0.19,1.04 -0.12,0.31 -0.3,0.55 -0.52,0.73 -0.22,0.18 -0.51,0.31 -0.87,0.4 l -0.17,-0.63 c 0.27,-0.08 0.48,-0.18 0.64,-0.3 0.15,-0.12 0.28,-0.29 0.37,-0.51 0.09,-0.22 0.14,-0.46 0.14,-0.73 0,-0.32 -0.05,-0.6 -0.15,-0.83 -0.1,-0.23 -0.23,-0.42 -0.39,-0.57 -0.16,-0.14 -0.33,-0.25 -0.53,-0.33 -0.33,-0.14 -0.69,-0.2 -1.07,-0.2 -0.47,0 -0.87,0.08 -1.19,0.25 -0.32,0.16 -0.56,0.4 -0.71,0.71 -0.15,0.31 -0.23,0.64 -0.23,0.99 0,0.3 0.06,0.6 0.18,0.89 0.12,0.29 0.24,0.51 0.37,0.66 h 0.99 v -1.56 z"
   id="path962" />
			<path
   class="st49"
   d="m 1170.62,435.47 h 5.31 v 0.72 l -4.17,2.79 h 4.17 v 0.67 h -5.31 v -0.72 l 4.18,-2.79 h -4.18 z"
   id="path964" />
			<path
   class="st49"
   d="m 1170.62,441.35 h 5.31 v 1.83 c 0,0.41 -0.03,0.73 -0.08,0.95 -0.07,0.3 -0.2,0.56 -0.38,0.78 -0.24,0.28 -0.54,0.49 -0.91,0.63 -0.37,0.14 -0.79,0.21 -1.26,0.21 -0.4,0 -0.76,-0.05 -1.07,-0.14 -0.31,-0.09 -0.57,-0.22 -0.77,-0.36 -0.2,-0.14 -0.36,-0.31 -0.48,-0.48 -0.12,-0.18 -0.21,-0.39 -0.27,-0.63 -0.06,-0.25 -0.09,-0.53 -0.09,-0.85 z m 0.63,0.71 v 1.13 c 0,0.35 0.03,0.62 0.1,0.83 0.07,0.2 0.16,0.36 0.28,0.48 0.17,0.17 0.39,0.3 0.67,0.39 0.28,0.09 0.62,0.14 1.02,0.14 0.56,0 0.98,-0.09 1.28,-0.27 0.3,-0.18 0.5,-0.4 0.6,-0.67 0.07,-0.19 0.11,-0.49 0.11,-0.91 v -1.12 z"
   id="path966" />
			<path
   class="st49"
   d="m 1170.62,451.32 5.31,-2.06 v 0.76 l -3.86,1.38 c -0.31,0.11 -0.6,0.2 -0.87,0.28 0.29,0.08 0.58,0.18 0.87,0.29 l 3.86,1.44 v 0.72 l -5.31,-2.08 z"
   id="path968" />
			<path
   class="st49"
   d="m 1172.48,459.06 -0.18,0.71 c -0.58,-0.15 -1.02,-0.42 -1.32,-0.8 -0.3,-0.38 -0.46,-0.85 -0.46,-1.4 0,-0.57 0.12,-1.04 0.35,-1.4 0.23,-0.36 0.57,-0.63 1.01,-0.82 0.44,-0.19 0.92,-0.28 1.42,-0.28 0.55,0 1.04,0.1 1.45,0.31 0.41,0.21 0.72,0.51 0.94,0.9 0.21,0.39 0.32,0.82 0.32,1.29 0,0.53 -0.14,0.98 -0.41,1.34 -0.27,0.36 -0.65,0.62 -1.14,0.76 l -0.16,-0.69 c 0.39,-0.13 0.67,-0.3 0.84,-0.54 0.18,-0.24 0.26,-0.53 0.26,-0.88 0,-0.41 -0.1,-0.75 -0.29,-1.02 -0.2,-0.28 -0.46,-0.47 -0.79,-0.58 -0.33,-0.11 -0.67,-0.16 -1.02,-0.16 -0.45,0 -0.85,0.06 -1.18,0.2 -0.34,0.13 -0.59,0.33 -0.76,0.61 -0.17,0.28 -0.25,0.58 -0.25,0.9 0,0.39 0.11,0.73 0.34,1 0.25,0.27 0.59,0.45 1.03,0.55 z"
   id="path970" />
			<path
   class="st49"
   d="m 1172.48,464.93 -0.18,0.7 c -0.58,-0.15 -1.02,-0.41 -1.32,-0.8 -0.3,-0.38 -0.46,-0.85 -0.46,-1.4 0,-0.58 0.12,-1.04 0.35,-1.4 0.23,-0.36 0.57,-0.63 1.01,-0.82 0.44,-0.19 0.92,-0.28 1.42,-0.28 0.55,0 1.04,0.11 1.45,0.32 0.41,0.21 0.72,0.51 0.94,0.9 0.21,0.39 0.32,0.82 0.32,1.29 0,0.53 -0.14,0.98 -0.41,1.34 -0.27,0.36 -0.65,0.62 -1.14,0.76 l -0.16,-0.69 c 0.39,-0.12 0.67,-0.3 0.84,-0.54 0.18,-0.23 0.26,-0.53 0.26,-0.88 0,-0.41 -0.1,-0.75 -0.29,-1.02 -0.2,-0.28 -0.46,-0.47 -0.79,-0.58 -0.33,-0.11 -0.67,-0.17 -1.02,-0.17 -0.45,0 -0.85,0.07 -1.18,0.2 -0.34,0.13 -0.59,0.34 -0.76,0.61 -0.17,0.27 -0.25,0.58 -0.25,0.9 0,0.39 0.11,0.73 0.34,1 0.25,0.28 0.59,0.47 1.03,0.56 z"
   id="path972" />
			<path
   class="st49"
   d="m 1172.33,469.35 0.06,0.66 c -0.27,0.03 -0.48,0.1 -0.65,0.22 -0.17,0.11 -0.31,0.29 -0.41,0.53 -0.11,0.24 -0.16,0.51 -0.16,0.81 0,0.27 0.04,0.51 0.12,0.71 0.08,0.21 0.19,0.36 0.33,0.46 0.14,0.1 0.29,0.15 0.45,0.15 0.17,0 0.31,-0.05 0.44,-0.14 0.12,-0.1 0.23,-0.26 0.31,-0.48 0.06,-0.14 0.14,-0.46 0.26,-0.94 0.12,-0.49 0.23,-0.83 0.33,-1.03 0.13,-0.25 0.3,-0.44 0.5,-0.57 0.2,-0.13 0.42,-0.19 0.66,-0.19 0.27,0 0.52,0.08 0.75,0.23 0.23,0.15 0.41,0.37 0.53,0.67 0.12,0.3 0.18,0.62 0.18,0.97 0,0.4 -0.06,0.74 -0.19,1.04 -0.13,0.3 -0.31,0.53 -0.56,0.69 -0.25,0.16 -0.53,0.25 -0.84,0.26 l -0.05,-0.67 c 0.34,-0.04 0.59,-0.16 0.76,-0.37 0.17,-0.21 0.26,-0.52 0.26,-0.93 0,-0.43 -0.08,-0.73 -0.23,-0.93 -0.15,-0.2 -0.34,-0.29 -0.56,-0.29 -0.19,0 -0.35,0.07 -0.47,0.21 -0.12,0.14 -0.25,0.49 -0.38,1.06 -0.13,0.57 -0.24,0.96 -0.34,1.17 -0.14,0.31 -0.32,0.54 -0.54,0.69 -0.22,0.15 -0.47,0.22 -0.76,0.22 -0.28,0 -0.55,-0.08 -0.8,-0.24 -0.25,-0.16 -0.44,-0.39 -0.58,-0.7 -0.14,-0.3 -0.21,-0.65 -0.21,-1.02 0,-0.48 0.07,-0.88 0.21,-1.21 0.14,-0.33 0.35,-0.58 0.63,-0.76 0.27,-0.18 0.59,-0.27 0.95,-0.28 z"
   id="path974" />
			<path
   class="st49"
   d="m 1170.62,475.05 h 5.31 v 1.83 c 0,0.41 -0.03,0.73 -0.08,0.95 -0.07,0.3 -0.2,0.56 -0.38,0.78 -0.24,0.28 -0.54,0.49 -0.91,0.63 -0.37,0.14 -0.79,0.21 -1.26,0.21 -0.4,0 -0.76,-0.05 -1.07,-0.14 -0.31,-0.09 -0.57,-0.22 -0.77,-0.36 -0.2,-0.15 -0.36,-0.31 -0.48,-0.48 -0.12,-0.18 -0.21,-0.39 -0.27,-0.63 -0.06,-0.25 -0.09,-0.53 -0.09,-0.86 z m 0.63,0.71 v 1.13 c 0,0.35 0.03,0.63 0.1,0.82 0.07,0.2 0.16,0.36 0.28,0.48 0.17,0.16 0.39,0.29 0.67,0.39 0.28,0.09 0.62,0.14 1.02,0.14 0.56,0 0.98,-0.09 1.28,-0.27 0.3,-0.18 0.5,-0.41 0.6,-0.67 0.07,-0.19 0.11,-0.49 0.11,-0.91 v -1.12 h -4.06 z"
   id="path976" />
			<path
   class="st49"
   d="m 1170.62,480.34 5.31,2.04 v 0.76 l -5.31,2.18 v -0.8 l 1.61,-0.62 v -2.22 l -1.61,-0.58 z m 2.18,1.54 v 1.8 l 1.47,-0.56 c 0.45,-0.17 0.81,-0.29 1.1,-0.38 -0.34,-0.07 -0.68,-0.16 -1.02,-0.29 z"
   id="path978" />
			<path
   class="st49"
   d="m 1172.33,488.32 0.06,0.66 c -0.27,0.03 -0.48,0.1 -0.65,0.22 -0.17,0.12 -0.31,0.29 -0.41,0.54 -0.11,0.24 -0.16,0.51 -0.16,0.81 0,0.27 0.04,0.51 0.12,0.71 0.08,0.21 0.19,0.36 0.33,0.46 0.14,0.1 0.29,0.15 0.45,0.15 0.17,0 0.31,-0.05 0.44,-0.15 0.12,-0.1 0.23,-0.26 0.31,-0.48 0.06,-0.14 0.14,-0.46 0.26,-0.94 0.12,-0.49 0.23,-0.83 0.33,-1.03 0.13,-0.25 0.3,-0.44 0.5,-0.57 0.2,-0.13 0.42,-0.19 0.66,-0.19 0.27,0 0.52,0.07 0.75,0.23 0.23,0.15 0.41,0.37 0.53,0.67 0.12,0.29 0.18,0.62 0.18,0.97 0,0.39 -0.06,0.74 -0.19,1.04 -0.13,0.3 -0.31,0.53 -0.56,0.7 -0.25,0.16 -0.53,0.25 -0.84,0.26 l -0.05,-0.68 c 0.34,-0.03 0.59,-0.16 0.76,-0.37 0.17,-0.21 0.26,-0.52 0.26,-0.93 0,-0.43 -0.08,-0.74 -0.23,-0.93 -0.15,-0.19 -0.34,-0.29 -0.56,-0.29 -0.19,0 -0.35,0.07 -0.47,0.21 -0.12,0.14 -0.25,0.49 -0.38,1.06 -0.13,0.57 -0.24,0.96 -0.34,1.17 -0.14,0.31 -0.32,0.54 -0.54,0.69 -0.22,0.15 -0.47,0.22 -0.76,0.22 -0.28,0 -0.55,-0.08 -0.8,-0.24 -0.25,-0.16 -0.44,-0.39 -0.58,-0.7 -0.14,-0.3 -0.21,-0.64 -0.21,-1.02 0,-0.48 0.07,-0.88 0.21,-1.21 0.14,-0.32 0.35,-0.58 0.63,-0.76 0.27,-0.18 0.59,-0.27 0.95,-0.28 z"
   id="path980" />
			<path
   class="st49"
   d="m 1172.48,497.81 -0.18,0.7 c -0.58,-0.15 -1.02,-0.41 -1.32,-0.8 -0.3,-0.38 -0.46,-0.85 -0.46,-1.41 0,-0.57 0.12,-1.04 0.35,-1.4 0.23,-0.36 0.57,-0.63 1.01,-0.82 0.44,-0.19 0.92,-0.28 1.42,-0.28 0.55,0 1.04,0.1 1.45,0.32 0.41,0.22 0.72,0.51 0.94,0.9 0.21,0.39 0.32,0.82 0.32,1.29 0,0.53 -0.14,0.98 -0.41,1.34 -0.27,0.36 -0.65,0.61 -1.14,0.76 l -0.16,-0.69 c 0.39,-0.12 0.67,-0.3 0.84,-0.54 0.18,-0.23 0.26,-0.53 0.26,-0.88 0,-0.41 -0.1,-0.75 -0.29,-1.02 -0.2,-0.27 -0.46,-0.47 -0.79,-0.58 -0.33,-0.11 -0.67,-0.17 -1.02,-0.17 -0.45,0 -0.85,0.07 -1.18,0.2 -0.34,0.13 -0.59,0.34 -0.76,0.61 -0.17,0.28 -0.25,0.58 -0.25,0.9 0,0.4 0.11,0.73 0.34,1 0.25,0.29 0.59,0.48 1.03,0.57 z"
   id="path982" />
			<path
   class="st49"
   d="m 1170.62,499.87 h 5.31 v 0.7 h -4.69 v 2.62 h -0.63 v -3.32 z"
   id="path984" />
		</g><rect
     x="503.90317"
     y="-841.85846"
     transform="rotate(90)"
     class="st3"
     width="3.0899999"
     height="7.9899998"
     id="rect990" /><rect
     x="512.19873"
     y="-841.85406"
     transform="rotate(90)"
     class="st3"
     width="3.0899999"
     height="7.9899998"
     id="rect992" /><rect
     x="520.49438"
     y="-841.85968"
     transform="rotate(90)"
     class="st3"
     width="3.0899999"
     height="7.9899998"
     id="rect994" /><rect
     x="528.78998"
     y="-841.85522"
     transform="rotate(90)"
     class="st3"
     width="3.0899999"
     height="7.9899998"
     id="rect996" /><rect
     x="503.90314"
     y="-876.58844"
     transform="rotate(90)"
     class="st3"
     width="3.0899999"
     height="7.9899998"
     id="rect998" /><rect
     x="512.19873"
     y="-876.58405"
     transform="rotate(90)"
     class="st3"
     width="3.0899999"
     height="7.9899998"
     id="rect1000" /><rect
     x="520.49432"
     y="-876.58972"
     transform="rotate(90)"
     class="st3"
     width="3.0899999"
     height="7.9899998"
     id="rect1002" /><rect
     x="528.78992"
     y="-876.58527"
     transform="rotate(90)"
     class="st3"
     width="3.0899999"
     height="7.9899998"
     id="rect1004" /><rect
     x="810.87927"
     y="411.11209"
     class="st3"
     width="5.6900001"
     height="6.3800001"
     id="rect1006" /><rect
     x="824.99927"
     y="411.11209"
     class="st3"
     width="5.6900001"
     height="6.3800001"
     id="rect1008" /><rect
     x="807.97931"
     y="428.74207"
     class="st3"
     width="5.6900001"
     height="6.3800001"
     id="rect1010" /><rect
     x="829.18927"
     y="428.74207"
     class="st3"
     width="5.6900001"
     height="6.3800001"
     id="rect1012" /><rect
     x="809.33929"
     y="417.49207"
     class="st1"
     width="24.530001"
     height="13.45"
     id="rect1014" /><rect
     x="813.45929"
     y="379.34207"
     class="st1"
     width="15.89"
     height="24.629999"
     id="rect1016" /><rect
     x="807.4093"
     y="381.71207"
     class="st3"
     width="6.0500002"
     height="3.5"
     id="rect1018" /><rect
     x="807.4093"
     y="389.35208"
     class="st3"
     width="6.0500002"
     height="3.5"
     id="rect1020" /><rect
     x="807.4093"
     y="396.82208"
     class="st3"
     width="6.0500002"
     height="3.5"
     id="rect1022" /><rect
     x="829.28931"
     y="382.00208"
     class="st3"
     width="6.0500002"
     height="3.5"
     id="rect1024" /><rect
     x="829.28931"
     y="389.64209"
     class="st3"
     width="6.0500002"
     height="3.5"
     id="rect1026" /><rect
     x="829.28931"
     y="397.11209"
     class="st3"
     width="6.0500002"
     height="3.5"
     id="rect1028" /><path
     class="st17"
     d="m 896.83927,490.42207 h -50.82 c -0.47,0 -0.85,-0.38 -0.85,-0.85 v -11.28 c 0,-0.47 0.38,-0.85 0.85,-0.85 h 50.82 c 0.47,0 0.85,0.38 0.85,0.85 v 11.29 c 0,0.46 -0.38,0.84 -0.85,0.84 z"
     id="path1030" /><path
     class="st17"
     d="m 896.83927,445.38207 h -50.82 c -0.47,0 -0.85,-0.38 -0.85,-0.85 v -11.29 c 0,-0.47 0.38,-0.85 0.85,-0.85 h 50.82 c 0.47,0 0.85,0.38 0.85,0.85 v 11.29 c 0,0.47 -0.38,0.85 -0.85,0.85 z"
     id="path1032" /><path
     class="st50"
     d="m 893.98927,486.15207 h -45.01 c -0.78,0 -1.42,-0.63 -1.42,-1.42 v -47.13 c 0,-0.78 0.63,-1.42 1.42,-1.42 h 45.01 c 0.78,0 1.42,0.63 1.42,1.42 v 47.13 c 0,0.79 -0.63,1.42 -1.42,1.42 z"
     id="path1034" /></g>

</svg>
